<?xml version="1.0" encoding="utf-8"?>
<!-- Generator: Adobe Illustrator 28.2.0, SVG Export Plug-In . SVG Version: 6.00 Build 0)  -->
<svg version="1.1" xmlns="http://www.w3.org/2000/svg" xmlns:xlink="http://www.w3.org/1999/xlink" x="0px" y="0px"
	 viewBox="0 0 1730.4 1474.5" style="enable-background:new 0 0 1730.4 1474.5;" xml:space="preserve">
<style type="text/css">
	.st0{fill:#5CC0FC;}
</style>
<g id="Layer_1">
</g>
<g id="Layer_2">
	<g>
		<g>
			<path class="st0" d="M1038.8,1460.8c-6,1.9-12.1,3.7-18.4,5.2c-89.9,21.9-194.1,0.9-285.7-57.8
				c-75.6-48.4-142.4-119.8-204.4-218.5c-16.7-26.6-32.9-54.8-48.6-82c-55.5-96.5-112.9-196.3-207.4-253.7
				c-25.7-15.6-54-27.8-81.4-39.7c-41.9-18.1-85.2-36.8-119.8-67.9C33.3,710.6,7.9,658.7,1.6,600.3C-4.5,543.8,7.3,487,35,440.3
				c51.7-87,154.1-146.4,274-158.7c13.8-1.4,28.2-2.3,42-3.2c45.9-2.9,93.4-5.8,132.4-28.7c35-20.5,59-54.7,82.3-87.9
				c11.1-15.8,22.5-32.1,35.1-46.8c40.2-47.2,95.7-81.9,160.7-100.4c62.9-17.9,130-19.4,194.1-4.5
				c121.5,28.3,234.6,112.5,310.2,231.1c22.5,35.2,41.5,73.1,60,109.6c18.2,36.1,37,73.5,59.1,108.2c37,58.3,99.5,131.7,187.3,150.3
				c10.5,2.2,21.5,3.7,32.1,5.1c23.5,3.1,47.9,6.3,69.1,18.3c33.1,18.6,55.5,58.8,57,102.4c1.2,34.5-9,71.5-31.4,113.3
				c-28.6,53.3-69.5,101.7-118.3,139.8c-48.8,38.2-105.8,66.3-164.8,81.4c-13,3.3-26.3,6.1-39.2,8.8c-23.3,4.9-47.4,9.9-69.9,18.2
				c-40.2,14.8-69.3,39.2-82,68.7c-8.9,20.8-10.1,44.3-11.2,67.1c-0.5,10.6-1.1,21.6-2.4,32.2
				C1200.2,1352.8,1130.5,1431.2,1038.8,1460.8z M222.4,304.4C142.5,330.2,76.9,378.9,39,442.7C-18.9,540.3-2.6,672.2,76.2,743
				c34,30.6,77,49.2,118.5,67.1c27.5,11.9,56,24.2,81.9,39.9c95.6,58,153.3,158.3,209.1,255.3c15.6,27.2,31.8,55.3,48.5,81.9
				c61.6,98.1,128,169.1,202.9,217.1c90.6,58,193.5,78.8,282.1,57.2c6.1-1.5,12.1-3.2,18.1-5.1c90-29.1,158.4-105.9,169.1-192.4
				c1.3-10.5,1.9-21.4,2.4-31.9c1.2-23.2,2.4-47.2,11.6-68.7c13.2-30.7,43.2-56,84.6-71.3c22.8-8.4,47.1-13.5,70.5-18.4
				c12.8-2.7,26.1-5.5,39-8.8c118.1-30.2,222.9-112,280.1-218.9c22-41,32.1-77.3,30.9-111c-1.5-42-23-80.7-54.7-98.5
				c-20.5-11.5-44.4-14.7-67.5-17.7c-10.7-1.4-21.7-2.9-32.4-5.1c-89.4-18.9-152.8-93.3-190.3-152.4c-22.2-34.9-41-72.4-59.3-108.6
				c-18.4-36.5-37.4-74.2-59.7-109.2c-75-117.6-187-201-307.3-229.1c-131-30.5-271.7,11.1-350.2,103.4
				c-12.4,14.6-23.8,30.8-34.8,46.5c-23.6,33.5-47.9,68.2-83.7,89.2c-39.9,23.4-88,26.4-134.4,29.3c-13.8,0.9-28.1,1.8-41.8,3.2
				C279.1,289.4,249.9,295.5,222.4,304.4z"/>
		</g>
		<g>
			<path class="st0" d="M1019.6,1434.5c-6.5,2.1-13.1,3.9-19.7,5.5c-88.2,20.9-189.7,0.3-278.5-56.6
				c-73.8-47.3-138.7-117.1-198.6-213.7c-15.9-25.5-31.3-52.3-46.2-78.3c-54-94-109.9-191.2-200.6-248.8
				c-24.2-15.4-50.5-27.8-75.9-39.9c-39.3-18.6-79.9-37.9-112.4-68.1C11,663.7-4.1,533.4,53.1,438.2
				c50.6-84.3,150.4-142.1,267-154.8c13.5-1.5,27.5-2.5,41-3.5c44.6-3.2,90.7-6.5,128.3-29.4c33.8-20.5,57.8-53.9,81.1-86.2
				c11.7-16.2,23.7-32.9,36.9-47.9c40.2-45.7,95-79.1,158.6-96.7c61.8-17,127.6-18.1,190.3-3.1c119,28.6,229.7,111.8,303.7,228.5
				c21.6,34.2,40.1,70.9,58,106.4c18.9,37.4,38.4,76.1,61.5,111.8c36.3,56.1,97.9,127.3,185.1,148.1c8.9,2.1,17.9,3.8,26.6,5.5
				c25.8,5,50.2,9.7,71.3,23.3c30.7,19.9,49.5,58.9,49.1,101.7c-0.3,33.5-11.2,68.4-34.1,109.9c-55,99.4-148.2,175.4-257.7,210.8
				c-6.3,2-12.6,3.9-18.9,5.7c-16.3,4.5-33.2,8.2-49.6,11.7c-21.1,4.6-43,9.3-63.5,15.8c-29.7,9.5-68.6,27.8-84.9,61.2
				c-9.3,19.2-10.8,41.1-12.3,62.3c-0.7,9.6-1.3,19.5-2.7,29.1c-6.5,45.2-28.5,87.5-63.6,122.5
				C1095.4,1399.8,1058.8,1421.9,1019.6,1434.5z M237.1,305.6c-78.3,25.3-142.8,72.9-180.1,135C0.8,534,15.6,661.8,90.6,731.4
				c32,29.7,70.5,48,111.3,67.3c25.5,12.1,51.9,24.6,76.4,40.2c91.7,58.2,147.8,155.9,202.1,250.4c14.9,25.9,30.3,52.7,46.1,78.2
				c59.5,95.9,124.1,165.4,197.2,212.2c87.8,56.2,188,76.7,275,56c96.1-22.8,172-100,184.5-187.6c1.4-9.4,2-19.2,2.7-28.7
				c1.5-21.7,3-44,12.7-64c17-34.9,57-53.9,87.6-63.6c20.7-6.6,42.7-11.3,63.9-15.9c16.3-3.5,33.2-7.2,49.4-11.6
				c116.6-32.2,216.4-110.3,273.9-214.3c22.6-40.8,33.2-75,33.5-107.7c0.4-41.3-17.6-78.9-47-97.9c-20.4-13.2-44.4-17.8-69.7-22.7
				c-8.8-1.7-17.8-3.4-26.8-5.6c-88.6-21.1-151.1-93.2-187.9-150c-23.2-35.9-42.8-74.7-61.7-112.2c-17.8-35.4-36.3-72-57.8-106
				c-73.4-115.7-183.1-198.2-300.9-226.5c-129.5-31.1-264.7,7.5-344.5,98.3l-1.7-1.5l1.7,1.5c-13,14.8-25,31.4-36.6,47.5
				c-23.5,32.6-47.9,66.4-82.4,87.4c-38.6,23.5-85.2,26.8-130.4,30c-13.5,1-27.4,1.9-40.8,3.5C291.5,291.1,263.5,297.1,237.1,305.6z
				"/>
		</g>
		<g>
			<path class="st0" d="M1001.8,1407.9c-7.3,2.4-14.8,4.4-22.4,6.2c-86.4,19.9-185.3-0.3-271.3-55.4
				c-72-46.1-135.1-114.4-192.9-208.8c-15-24.3-29.6-49.8-43.8-74.4C418.9,984,364.5,889.3,277.5,831.4
				c-22.7-15.1-46.8-27.7-70.1-39.9c-38.5-20.1-74.9-39.1-105.4-68.5c-36-34.6-58.7-83.5-64-137.6c-5.2-52.9,6.6-105.9,33-149.4
				c49.3-81,146.5-137.4,260.1-151c12.8-1.5,26-2.6,38.8-3.6c43.7-3.5,88.8-7.1,125.4-30.2c32.5-20.5,56.5-52.9,79.8-84.3
				c12.3-16.6,25.1-33.8,38.9-49.1C695,29.1,829.7-8,957.2,23.5c116.9,28.9,225.2,111.3,297.2,225.9c21,33.4,39,69.3,56.5,104
				c19.3,38.4,39.4,78.2,63.4,114.5c50.4,76.2,115.3,128,182.9,145.9c6,1.6,11.9,3,17.7,4.5c28.4,7,55.2,13.7,76.9,29.9
				c27.8,20.8,43.6,59.5,41.2,101.1c-1.9,32.3-13.2,65.2-36.7,106.4c-29.3,51.4-68.6,97.7-113.8,133.8c-48,38.5-100.7,64.7-156.6,78
				c-12.5,3-25.5,5.9-38,8.8c-26.3,6-53.5,12.2-79.1,19.2c-45.2,12.4-74.8,30.4-87.8,53.8c-9.8,17.5-11.5,36.9-13.3,57.5
				c-0.8,8.5-1.5,17.4-3,26C1151.4,1312.2,1087.2,1380.3,1001.8,1407.9z M252.2,306.8c-77.2,24.9-140.8,71.4-177.4,131.6
				c-54.3,89.3-41,212.9,30.2,281.5c30,28.9,66.2,47.8,104.4,67.8c23.4,12.2,47.6,24.9,70.5,40.1c87.9,58.5,142.5,153.6,195.3,245.5
				c14.1,24.6,28.7,50,43.7,74.3c57.5,93.8,120.1,161.6,191.5,207.4c85,54.5,182.6,74.5,267.9,54.9
				c94.8-21.8,167.9-93.3,181.9-177.8c1.4-8.4,2.2-17.2,2.9-25.6c1.8-20.1,3.6-40.9,13.9-59.2c13.6-24.4,44.1-43.2,90.5-55.9
				c25.7-7,52.9-13.2,79.2-19.2c12.5-2.9,25.4-5.8,38-8.8c108.8-25.9,206.4-102.4,267.6-209.8c23.2-40.6,34.3-72.9,36.2-104.5
				c2.3-40.1-12.8-77.4-39.4-97.3c-21-15.7-47.4-22.3-75.3-29.2c-5.9-1.5-11.8-2.9-17.8-4.5c-68.6-18.1-134.5-70.6-185.5-147.7
				c-24.2-36.6-44.2-76.4-63.6-115c-17.4-34.6-35.4-70.3-56.3-103.6c-71.4-113.7-178.7-195.3-294.6-224
				C830.2-3.4,697.2,33.2,617.3,121l0,0c-13.7,15.1-26.4,32.2-38.7,48.7c-23.5,31.7-47.7,64.4-80.9,85.4
				c-37.6,23.7-83.2,27.3-127.4,30.9c-12.7,1-25.9,2.1-38.6,3.6C304,292.8,277.4,298.7,252.2,306.8z"/>
		</g>
		<g>
			<path class="st0" d="M982.9,1381.6c-7.9,2.5-15.9,4.7-24.1,6.6c-84.7,18.8-180.9-0.9-264-54.3
				c-69.7-44.7-130.9-111.4-187.2-203.9c-13.7-22.5-27.1-45.9-40.1-68.6c-51.4-89.8-104.6-182.7-188.4-241.3
				c-20.9-14.6-42.7-27.2-63.7-39.3c-36.1-20.9-70.3-40.6-99-69.4c-34-34.1-55.4-81.4-60.1-133.3c-4.7-51.1,6.9-102.2,32.7-144.1
				c48.1-78,142.7-133,253.1-147.1c12.3-1.6,24.9-2.7,37.1-3.8c42.5-3.8,86.5-7.7,122-31c31.2-20.5,55.1-51.9,78.2-82.2
				c13-17.2,26.5-34.9,41.2-50.5l1.5,1.5l-1.5-1.5c81-85.9,213.4-121,337.3-89.3c114.6,29.3,220.5,110.7,290.7,223.3
				c20.3,32.6,37.9,67.5,54.9,101.3c19.9,39.5,40.4,80.4,65.4,117.5c49.3,73.2,113.5,124.2,180.7,143.7l2,0.6
				c35.4,10.2,65.9,19.1,89.4,39.4c25.3,21.9,37.7,59.5,33.2,100.4c-4.3,39.3-23.3,75.7-39.4,103
				c-57.6,97.8-142.5,169.2-236.2,199.5c-9.2,3-18.5,5.5-27.8,7.7c-19.1,4.4-38.9,9.1-58.1,13.7c-20.9,5-42.5,10.1-63,14.8
				c-48,11.1-77.8,26.2-90.8,46.3c-10.3,15.8-12.3,33.6-14.4,52.5c-0.9,7.6-1.7,15.4-3.2,23C1127,1291.3,1064.7,1355.2,982.9,1381.6
				z M267.3,307.9c-75.9,24.5-138.5,69.9-174.6,128.3c-53.3,86.4-41.8,203.4,26.8,272.1c28.3,28.4,62.2,48,98.1,68.7
				c21.1,12.2,42.9,24.8,64,39.5c84.6,59.2,138,152.4,189.7,242.7c13,22.6,26.4,46,40,68.5c55.9,91.9,116.7,158.2,185.8,202.5
				c82.2,52.7,177.2,72.3,260.8,53.7c91.8-20.4,163.9-88,179.3-168c1.4-7.4,2.3-15.2,3.2-22.7c2.1-18.5,4.3-37.7,15.1-54.4
				c13.7-21.1,44.2-36.8,93.4-48.1c20.5-4.7,42.1-9.9,63-14.8c19.2-4.5,39-9.3,58.1-13.7c103.5-24,198.7-98.8,261.3-205.2
				c15.8-26.9,34.6-62.8,38.8-101.3c4.4-39.5-7.5-75.7-31.8-96.7c-22.8-19.7-52.9-28.4-87.8-38.5l-2-0.6
				c-68.2-19.7-133.2-71.4-183.1-145.4c-25.1-37.3-45.8-78.3-65.7-118c-16.9-33.7-34.4-68.5-54.7-101
				C1175.5,144,1070.4,63.3,956.9,34.3C834.5,3,703.7,37.6,623.8,122.5c-14.5,15.4-27.9,33-40.9,50.1
				c-23.3,30.7-47.4,62.3-79.2,83.2c-36.4,23.8-80.9,27.8-124,31.6c-12.2,1.1-24.8,2.2-37,3.8C316.5,294.5,291.2,300.2,267.3,307.9z
				"/>
		</g>
		<g>
			<path class="st0" d="M964.7,1355.1c-8.6,2.8-17.5,5.2-26.5,7.1c-82.9,17.8-176.5-1.5-256.8-53.1
				c-67.7-43.5-127.1-108.6-181.4-199c-12.5-20.9-24.9-42.5-36.8-63.3C413,958.9,361,868.1,280.7,808.9
				c-18.8-13.9-37.8-26.1-56.2-37.9c-34.2-22-66.4-42.7-93.6-71.2c-65.8-69.1-76.1-184.2-23.8-267.8C154,357,246,303.5,353.2,288.8
				c11.7-1.6,23.8-2.8,35.4-4c41.4-4.1,84.3-8.4,118.6-31.7c29.9-20.3,53.5-50.7,76.3-80c13.8-17.8,28.1-36.2,43.7-52.1l0,0
				c81-82.9,211.1-115.9,331.5-84.2C1071,66.5,1174.6,147,1243,257.6c19.7,31.8,36.8,65.9,53.3,98.8c20.4,40.6,41.5,82.6,67.4,120.4
				c48.3,70.2,111.6,120.4,178.5,141.5c37.5,11.8,66.8,24.1,88.1,45.5c22.4,22.7,31.9,60,25.3,99.7c-6.1,36.7-24.7,70.9-42,99.5
				c-58.6,96.5-141.5,166.3-230.7,195.1c-9,2.9-18,5.4-27,7.4c-15.4,3.5-31.3,7.4-46.6,11.1c-26,6.4-52.9,13-78.5,17.9
				c-34.9,6.7-77.1,17.1-93.8,38.9c-10.8,14-13.1,30.3-15.5,47.5c-0.9,6.6-1.9,13.4-3.4,20.1c-8.6,38.5-30.3,74.1-62.9,103.1
				C1029.5,1326.8,998.7,1344.2,964.7,1355.1z M282.4,309.1c-74.7,24.1-136.4,68.4-171.8,125.1c-51.3,82.1-41.3,195,23.3,262.8
				c26.9,28.2,58.9,48.8,92.9,70.6c18.4,11.9,37.5,24.1,56.4,38c81,59.7,133.2,151,183.6,239.2c11.9,20.9,24.3,42.5,36.8,63.3
				c54,89.8,113,154.5,180.1,197.7c79.3,51,171.8,70.1,253.7,52.5c90.2-19.4,159.5-81.5,176.6-158.2c1.5-6.5,2.4-13.2,3.3-19.8
				c2.4-17,4.9-34.5,16.3-49.4c17.5-22.7,58.5-33.2,96.3-40.4c25.5-4.9,52.3-11.4,78.3-17.8c15.4-3.8,31.3-7.7,46.7-11.2
				c98.2-22.2,191.1-95.4,255.1-200.6c17.2-28.3,35.5-62,41.5-98c6.4-38.5-2.6-74.4-24.1-96.1c-20.6-20.9-49.5-32.9-86.4-44.5
				c-67.7-21.3-131.9-72.1-180.7-143c-26.1-38-47.3-80.1-67.7-120.8c-16.5-32.8-33.5-66.8-53.1-98.5
				C1171.7,150,1068.9,70.2,957.7,40.9c-119-31.4-247.5,1.2-327.5,83l0,0c-15.4,15.7-29.6,34-43.4,51.7
				c-23,29.6-46.8,60.1-77.3,80.9c-35.2,23.9-78.6,28.3-120.5,32.4c-11.6,1.2-23.6,2.3-35.3,3.9C329,296.2,305.1,301.7,282.4,309.1z
				"/>
		</g>
		<g>
			<path class="st0" d="M946.4,1328.7c-9.3,3-18.9,5.5-28.6,7.6c-81.2,16.8-172.1-2.1-249.5-51.9
				c-65.8-42.3-123.3-105.8-175.7-194.1c-11.3-19-22.4-38.6-33.2-57.5c-49.1-86.2-100-175.2-176.9-235.2
				c-15.8-12.3-31.4-23.5-46.5-34.4c-33-23.7-64.1-46.1-90.4-75.1c-30-33.1-48.6-77.5-52.4-124.8c-3.8-47.4,7.6-94.8,32.1-133.4
				c46.3-73,133.5-123.8,239.2-139.3c11.2-1.6,22.6-2.9,33.7-4.1c40.3-4.5,82-9.1,115.3-32.5c28.5-20.1,51.8-49.3,74.2-77.5
				c14.7-18.5,29.9-37.6,46.4-53.8c80.9-79.8,208.7-110.8,325.6-79c109.9,29.9,211.1,109.4,277.8,218.1
				c19.1,31.1,35.7,64.3,51.8,96.3c20.9,41.6,42.4,84.7,69.4,123.1c47.1,67.2,109.7,116.6,176.3,139.2c40,13.6,66.9,29.8,84.8,51.1
				c19.9,23.7,26.2,59.8,17.3,99c-7.7,34-26,66.3-44.7,96c-35.8,57.1-110.6,153.8-223.9,190.4c-8.9,2.9-18,5.4-27.4,7.5
				c-15.2,3.4-31,7.4-46.2,11.2c-27.5,6.9-55.9,14.1-82.9,18.3c-40,6.2-80.4,13.6-96.9,31.4c-11.2,12.1-13.9,26.8-16.6,42.3
				c-1,5.7-2.1,11.5-3.6,17.3C1077.7,1250.5,1020.8,1304.7,946.4,1328.7z M295.9,310.5c-73.1,23.6-132.2,66.1-167.4,121.5
				c-49.2,77.6-40.7,186.6,19.9,253.4c26,28.7,57,51,89.8,74.6c15.1,10.9,30.7,22.1,46.6,34.5c77.6,60.4,128.6,149.9,177.9,236.3
				c10.8,18.9,21.9,38.5,33.2,57.4C548,1176,605.1,1239,670.3,1281c76.5,49.2,166.4,67.9,246.6,51.4c86.8-18,155.1-76.2,174-148.4
				c1.5-5.6,2.5-11.4,3.5-17c2.8-15.4,5.6-31.3,17.6-44.3c17.3-18.7,58.5-26.4,99.2-32.7c26.9-4.1,55.2-11.3,82.6-18.2
				c15.2-3.9,31-7.8,46.3-11.2c127.3-28.3,210.5-135,248.8-196.1c18.5-29.5,36.6-61.4,44.2-94.8c8.6-38,2.6-72.9-16.5-95.6
				c-17.4-20.7-43.8-36.6-83-49.9c-67.3-22.9-130.6-72.9-178.3-140.7c-27.1-38.7-48.8-81.8-69.7-123.6c-16-32-32.6-65.1-51.6-96
				C1167.8,156,1067.4,77.1,958.5,47.4c-115.6-31.5-241.9-0.9-321.8,78l-1.4-1.4l1.4,1.4c-16.3,16.1-31.5,35.1-46.1,53.5
				c-22.7,28.4-46.1,57.8-75.1,78.3c-34.1,24.1-76.3,28.7-117.1,33.2c-11.1,1.2-22.5,2.5-33.6,4.1
				C340.8,298,317.7,303.4,295.9,310.5z"/>
		</g>
		<g>
			<path class="st0" d="M928.7,1302.2c-10.2,3.3-20.7,6-31.5,8.2c-79.4,15.8-167.8-2.7-242.3-50.7c-63.8-41.1-119.4-103-170-189.2
				c-9.8-16.8-19.7-34-29.1-50.7c-48.2-84.8-98.1-172.5-171.8-233.3c-10.6-8.8-20.9-17.1-30.9-25.1c-35.5-28.6-66.2-53.3-93.2-84.8
				c-58.4-68.4-65.5-173-16.7-248.7c45-69.9,129.7-119.3,232.2-135.4c10.6-1.7,21.5-3,32-4.3c39.3-4.8,79.8-9.8,111.9-33.3
				c27.1-19.9,49.8-47.8,71.8-74.8c15.7-19.3,31.9-39.2,49.5-55.9l1.3,1.4l-1.3-1.4c80.8-76.8,206.3-105.7,319.8-73.8
				c107.5,30.3,206.4,108.8,271.3,215.5c18.5,30.3,34.6,62.7,50.3,94c21.3,42.7,43.4,86.8,71.3,125.8c46,64.2,107.8,112.8,174.1,137
				c37.6,13.7,64.3,32.3,81.5,56.7c23.4,33.2,15.9,75.8,9.4,98.3c-9.4,32.6-28.5,63.6-47.3,92.6c-67.8,104.8-154.8,173.4-245,193.2
				c-15.3,3.4-31.1,7.5-46.4,11.4c-28.7,7.5-58.3,15.2-86.7,18.5l-5.1,0.6c-40.5,4.8-78.7,9.3-94.8,23.4
				c-11.7,10.2-14.6,23.3-17.8,37.1c-1.1,4.8-2.2,9.7-3.7,14.6C1052.6,1230.3,999.2,1279.4,928.7,1302.2z M311.2,311.5
				c-72,23.2-130.3,64.7-164.9,118.4c-47.9,74.3-41,177,16.4,244.1c26.8,31.3,57.3,55.9,92.7,84.3c10,8,20.3,16.3,30.9,25.1
				c74.3,61.3,124.3,149.3,172.7,234.4c9.5,16.7,19.3,33.9,29.1,50.7c50.2,85.7,105.4,147.2,168.7,188
				c73.7,47.5,161,65.8,239.5,50.2c84.5-16.8,150.2-69.9,171.4-138.7c1.5-4.7,2.5-9.6,3.6-14.3c3.1-13.8,6.3-28.1,19-39.2
				c17-14.8,55.8-19.4,96.9-24.3l5.1-0.6c28.1-3.3,57.6-11,86.2-18.4c15.3-4,31.2-8.1,46.5-11.5c89.2-19.6,175.3-87.6,242.6-191.5
				c18.6-28.7,37.5-59.5,46.8-91.6c6.3-21.8,13.6-63.2-8.9-95c-16.8-23.8-42.8-41.9-79.7-55.3c-67-24.4-129.5-73.6-175.9-138.4
				c-28.1-39.3-50.2-83.5-71.6-126.3c-15.6-31.2-31.8-63.5-50.1-93.7C1164,161.9,1065.9,84,959.4,54c-112.2-31.6-236.3-3-316.1,72.9
				l0,0c-17.4,16.6-33.6,36.4-49.2,55.5c-22.2,27.2-45.1,55.3-72.5,75.5c-32.9,24.2-74,29.2-113.8,34c-10.5,1.3-21.3,2.6-31.8,4.3
				C353.4,299.7,331.8,304.8,311.2,311.5z"/>
		</g>
		<g>
			<path class="st0" d="M909.8,1276c-10.7,3.5-21.8,6.3-33.1,8.4c-77.7,14.7-163.4-3.3-235.1-49.6c-61.9-40-115.6-100.3-164.2-184.4
				c-8.2-14.2-16.4-28.6-24.3-42.6c-47.6-83.9-96.7-170.7-167.5-232.8c-43.9-38.5-79.9-71.1-111.3-110.3
				c-25.8-32.3-41.6-73.6-44.5-116.3c-3-44.5,7.9-87,31.3-122.8c43.8-66.9,125.9-114.8,225.2-131.5c10-1.7,20.2-3.1,30.2-4.4
				c39.9-5.4,77.7-10.5,108.7-34.1c25.6-19.5,47.7-46.1,69.1-71.8c16.8-20.1,34.1-41,52.9-58.2c80.6-73.7,203.8-100.7,314-68.6
				c105.1,30.6,201.6,108.2,264.8,212.9c17.9,29.6,33.6,61.2,48.9,91.8c21.7,43.6,44.2,88.8,73.1,128.3
				c44.7,61.2,105.7,109.1,171.8,134.8c36,14,62.3,35,78.2,62.3c18.7,32.1,11.1,70.8,1.5,97.6c-10.4,28.9-28,56.3-49.9,89.1
				c-45,67.3-117.4,150.7-213.9,181.8c-8.1,2.6-16.3,4.9-24.7,6.7c-15.4,3.4-31.4,7.6-46.8,11.7c-29.9,8-60.7,16.2-90.3,18.7
				c-7.8,0.7-15.4,1.3-22.9,1.8c-35.3,2.7-65.8,5-80.2,14.7c-12.2,8.2-15.5,19.7-18.9,31.9c-1.1,3.9-2.3,7.9-3.7,11.9
				C1027.5,1209.5,975.9,1254.6,909.8,1276z M326.7,312.4c-70.9,22.9-128.5,63.3-162.5,115.2c-46.3,70.7-41,167.2,12.9,234.7
				c31.2,39.1,65.6,70.2,110.8,109.8c71.2,62.5,120.5,149.6,168.2,233.8c7.9,14,16.1,28.5,24.3,42.6
				c48.3,83.6,101.6,143.5,163,183.1c70.9,45.7,155.6,63.6,232.3,49c80.4-15.2,145.1-64.6,168.8-128.9c1.4-3.8,2.5-7.8,3.6-11.6
				c3.5-12.3,7.1-25,20.4-33.9c15.2-10.3,46.2-12.6,82-15.4c7.4-0.6,15.1-1.1,22.8-1.8c29.3-2.5,60-10.7,89.7-18.6
				c15.4-4.1,31.4-8.4,46.9-11.8c107.7-23.5,187.9-114.7,236.3-187c22.5-33.7,39.3-59.7,49.5-88.3c9.3-26.1,16.7-63.6-1.2-94.5
				c-15.5-26.6-41.1-47-76.3-60.7c-66.8-26-128.4-74.3-173.5-136.1c-29.1-39.8-51.6-85.1-73.5-128.9c-15.2-30.5-30.9-62-48.7-91.5
				c-62.8-104-158.5-181-262.7-211.3c-108.9-31.7-230.8-5.1-310.4,67.8l0,0c-18.6,17-35.9,37.8-52.5,57.8
				c-21.5,25.9-43.8,52.7-69.7,72.4c-31.8,24.2-71.8,29.7-110.4,34.9c-9.9,1.3-20.1,2.7-30,4.4C366.1,301.3,345.9,306.2,326.7,312.4
				z"/>
		</g>
		<g>
			<path class="st0" d="M898.4,1248c-13.4,4.3-27.5,7.9-42.3,10.5c-75.9,13.7-159-3.9-227.8-48.4c-60-38.8-111.8-97.5-158.5-179.5
				c-6.1-10.8-12.2-21.6-18.3-32.3c-47.2-83.9-96.1-170.6-164.3-234.5c-38.3-35.9-66.8-67.9-98.4-110.7
				c-50.3-68-54.3-162.4-9.6-229.5c42.5-63.8,122-110.3,218.3-127.6c9.4-1.7,19-3.1,28.3-4.5c38.8-5.8,75.5-11.3,105.5-35
				c24-19,45.3-44.2,66-68.6c17.9-21.2,36.5-43,56.7-60.8l0,0c39.7-35,89.6-59.4,144.1-70.6c54.5-11.2,111.2-8.7,164,7.2
				c102.6,30.9,196.8,107.6,258.3,210.3c17.3,29,32.7,59.8,47.5,89.7c22.2,44.6,45.1,90.7,74.9,130.8
				c43.4,58.2,103.6,105.2,169.6,132.6c34.9,14.5,60.8,37.9,74.9,67.9c15.3,32.5,5,70.7-6.4,96.9c-11.3,26.2-28.3,50.7-47.9,79
				l-4.6,6.7c-71.9,104.1-150.1,165.9-232.2,183.9c-15.6,3.4-31.6,7.8-47.1,12c-31,8.5-63.1,17.2-94,18.9
				c-45,2.5-85.9,6.1-106.7,9.3c-11.2,1.7-13.9,10.5-17,20.6c-1.6,5.2-3.3,10.6-6.3,15.2C1013.1,1185.4,965.2,1226.4,898.4,1248z
				 M342.4,313.3c-70,22.6-126.8,62-160.3,112.2c-43.9,65.8-40,158.5,9.5,225.4c31.5,42.6,59.9,74.5,98,110.2
				c68.6,64.3,117.6,151.3,165,235.4c6.1,10.8,12.1,21.6,18.3,32.3c46.4,81.5,97.9,139.8,157.3,178.2c68.1,44,150.2,61.4,225.2,47.9
				c87.2-15.7,152.4-62.4,166.1-118.8l0.1-0.3l0.2-0.3c2.8-4.1,4.5-9.4,6-14.5c3.2-10.3,6.5-21,19.9-23.1c21.2-3.3,61.2-6.7,107-9.3
				c30.5-1.7,62.4-10.4,93.2-18.8c15.6-4.2,31.6-8.6,47.3-12c81.3-17.7,158.7-79.1,230.1-182.4l4.6-6.7
				c19.5-28.2,36.4-52.5,47.6-78.4c11.1-25.6,21.2-62.6,6.4-93.9c-13.7-29.1-38.9-52-73-66.1c-66.6-27.6-127.3-75.1-171.1-133.7
				c-30.1-40.3-53.1-86.6-75.3-131.4c-14.8-29.8-30.1-60.6-47.4-89.4c-61.1-102-154.5-178.1-256.3-208.7
				c-105.7-31.8-225.3-7.2-304.7,62.7c-20,17.6-38.5,39.4-56.3,60.4c-20.8,24.5-42.3,49.8-66.5,69.1
				c-30.7,24.3-69.6,30.1-107.2,35.7c-9.3,1.4-18.8,2.8-28.2,4.5C378.8,302.9,360.2,307.6,342.4,313.3z"/>
		</g>
		<g>
			<path class="st0" d="M882.3,1221.2c-14.7,4.7-30.3,8.6-46.7,11.4c-74.2,12.7-154.6-4.5-220.6-47.2
				c-58.1-37.6-108.1-94.7-152.8-174.6c-3.4-6.1-6.8-12.2-10.2-18.2c-47.6-85.2-96.8-173.4-163.2-240c-34.9-35-55.6-66.2-75.7-96.3
				c-3.3-4.9-6.6-9.9-9.9-14.8c-38.5-57.1-55.4-147.2-6-219.9c41.2-60.7,118.2-105.8,211.3-123.7c8.8-1.7,17.7-3.2,26.4-4.6
				c37.8-6.2,73.5-12,102.3-35.9c22.3-18.4,42.7-42.1,62.4-64.9c19.2-22.3,39.1-45.4,60.9-63.7l1.1,1.3l-1.1-1.3
				c81.3-68.7,197.1-91,302.3-58.2c100.2,31.2,192,106.9,251.9,207.7c16.8,28.3,31.7,58.5,46.2,87.6c22.5,45.6,45.9,92.7,76.7,133.2
				c42,55.1,101.4,101.4,167.4,130.3c43.9,19.3,63.1,50.6,71.5,73.4c9.7,26.4,4.9,58.8-14.3,96.2c-10.9,21.3-25.5,41.3-42.3,64.5
				c-4.2,5.7-8.5,11.6-12.8,17.7c-67.7,94.7-132.8,150.3-203,173c-7.6,2.4-15.2,4.5-22.9,6.2c-15.7,3.4-31.8,7.9-47.4,12.3
				c-32.2,9-65.5,18.3-97.7,19.1c-20.2,0.6-39.4,0.4-56.3,0.3c-23.1-0.1-41.3-0.2-53.1,1.3c-9.7,5.2-13.5,11.2-17.6,17.6
				c-2.1,3.4-4.4,6.9-7.5,10.4C989.9,1164.2,944.9,1200.9,882.3,1221.2z M358.3,314.1C289.1,336.5,233,374.9,200,423.4
				c-48.4,71.4-31.9,159.9,6,216c3.4,5,6.6,9.9,9.9,14.8c20,30,40.6,61,75.3,95.8C358,817,407.3,905.4,455,990.8
				c3.4,6.1,6.8,12.2,10.2,18.2c44.4,79.4,94.1,136.1,151.6,173.4c65.3,42.2,144.8,59.2,218.1,46.7c85.4-14.6,149.6-57.4,163.5-109
				l0.1-0.4l0.3-0.3c3.1-3.4,5.3-6.9,7.4-10.3c4.1-6.6,8.4-13.3,19.2-19l0.3-0.1l0.3,0c12-1.6,30.4-1.5,53.8-1.4
				c16.9,0.1,36,0.2,56.2-0.3c31.7-0.9,64.8-10.1,96.8-19c15.6-4.4,31.8-8.9,47.6-12.3c78.3-17.2,149.4-73.7,223.8-177.9
				c4.4-6.1,8.6-12,12.8-17.8c16.8-23.1,31.3-43,42.1-64.1c18.7-36.5,23.5-67.9,14.1-93.4c-8.1-22.2-26.8-52.7-69.7-71.5
				c-66.5-29.2-126.4-75.8-168.7-131.4c-31-40.8-54.4-88-77.1-133.8c-14.4-29.1-29.3-59.2-46-87.4
				c-59.4-100.1-150.5-175.3-249.9-206.2c-104.1-32.4-218.7-10.3-299.1,57.6l0,0c-21.5,18.2-41.3,41.1-60.5,63.3
				c-19.8,23-40.4,46.8-62.9,65.4c-29.6,24.4-67.4,30.6-104,36.6c-8.6,1.4-17.6,2.9-26.3,4.6C391.6,304.5,374.6,308.9,358.3,314.1z"
				/>
		</g>
		<g>
			<path class="st0" d="M868.2,1194c-16.4,5.3-34.2,9.6-53.2,12.6c-72.4,11.6-150.2-5.1-213.3-46c-56.2-36.4-104.3-91.9-147.1-169.7
				c-11.4-20.7-22.3-42.5-32.9-63.5c-35.1-70-71.5-142.5-131.1-185.9l-0.3-0.2l-0.2-0.3c-11.6-18.8-23.5-34.4-34.1-48.2
				c-16.3-21.4-30.4-39.9-38.6-63c-47.7-51-48.8-143.3-2.4-210.3c39.8-57.6,114.3-101.2,204.4-119.9c8.1-1.7,16.4-3.2,24.4-4.6
				c36.7-6.6,71.4-12.9,99.3-36.8c20.5-17.6,39.8-39.6,58.4-60.9c20.7-23.6,42.1-48,65.6-67.1l1,1.3l-1-1.3
				C748.1,64.5,861.7,44.2,963.6,77c97.7,31.5,187.2,106.3,245.4,205.2c16.3,27.7,30.8,57.2,44.9,85.7
				c22.9,46.5,46.6,94.5,78.4,135.5c40.4,52,99.1,97.5,165.1,128.1c44.2,20.5,61.5,54.3,68.2,79c7.4,27.1,0.1,58.3-22.2,95.4
				c-10.1,16.8-23,33.5-36.7,51.2c-6.8,8.8-13.9,17.9-21.1,27.7c-56.7,76.7-132.5,137-219.2,174.5c-47.8,20.6-100.9,32-149.3,32
				c-33,0-63.5-2.4-85.8-4.1c-10.6-0.8-19.8-1.5-26.7-1.8c-10,3.6-14.1,8.1-18.4,12.7c-2.3,2.5-4.6,5-7.9,7.5
				C966.7,1143.4,926.2,1175.3,868.2,1194z M292.9,738.9c60.2,44,96.6,116.6,131.9,187c10.5,21,21.4,42.7,32.8,63.4
				c42.5,77.3,90.2,132.4,145.9,168.5c62.5,40.5,139.4,57,211,45.5c84.9-13.6,146.6-51.7,160.8-99.2l0.2-0.5l0.4-0.3
				c3.3-2.5,5.6-5,7.9-7.5c4.7-5,9.1-9.8,20-13.7l0.3-0.1l0.3,0c7,0.2,16.3,1,27.1,1.8c22.2,1.7,52.7,4.1,85.6,4.1
				c47.3,0,101.3-11.6,148-31.7c86.2-37.2,161.5-97.1,217.9-173.4c7.2-9.8,14.3-18.9,21.1-27.7c13.6-17.6,26.5-34.2,36.4-50.8
				c21.8-36.3,28.9-66.7,21.8-92.9c-6.5-24.1-23.3-56.9-66.4-76.9c-66.5-30.8-125.6-76.7-166.4-129.1c-32-41.2-55.8-89.4-78.8-136.1
				c-14-28.4-28.5-57.8-44.8-85.4c-57.8-98.2-146.6-172.4-243.5-203.7c-100.9-32.5-213.3-12.4-293.4,52.5
				c-23.3,18.8-44.5,43.2-65.1,66.7c-18.7,21.4-38.1,43.5-58.7,61.2c-28.5,24.5-65.3,31.2-100.8,37.6c-8,1.4-16.2,2.9-24.3,4.6
				c-89.2,18.4-162.9,61.6-202.3,118.5c-45.6,65.9-44.6,156.6,2.3,206.4l0.2,0.3l0.1,0.3c7.9,22.8,22,41.2,38.2,62.5
				C269.3,704.5,281.2,720.1,292.9,738.9z"/>
		</g>
		<g>
			<path class="st0" d="M1213.5,1072.7c-38.6,12.5-79,18.9-115.3,17.9c-53.4-1.4-100-10.4-115.7-13.4c-10.5,2.1-14.7,4.8-19.6,8
				c-2.3,1.5-4.7,3-7.9,4.6c-15.1,43.5-76.5,78.3-160.5,90.9c-70.6,10.6-145.8-5.7-206.1-44.9c-54.3-35.3-100.5-89.2-141.3-164.8
				c-10.9-20.2-21.3-41.4-31.3-61.8c-33.1-67.3-67.3-137-123.4-179l-0.3-0.2l-0.2-0.3c-9.4-17.6-18.8-32.5-27.1-45.7
				c-14.4-22.8-26.9-42.5-32.7-66c-44.4-48.9-43.9-137,1.2-200.7c52.7-74.5,146.3-104.6,197.4-116c7.4-1.6,15-3.1,22.3-4.6
				c35.7-7.1,69.5-13.7,96.3-37.8c18.6-16.7,36.5-36.9,53.8-56.4c22.3-25.1,45.3-51.1,70.8-70.9l1,1.3l-1-1.3
				c80.5-62.5,191.9-80.9,290.7-47.9c95.3,31.8,182.3,105.6,238.9,202.6c15.8,27.1,30,55.9,43.6,83.8
				c23.3,47.4,47.3,96.4,80.1,137.7c49.7,62.6,116,103,162.9,125.9c47.1,23,60.8,62.9,64.8,84.6c5.1,27.8-4.4,57.9-30,94.7
				c-9.1,13.1-19.9,26-31.4,39.8c-9.4,11.2-19,22.7-28.9,35.7c-56.7,74.2-130.3,132.9-212.9,169.8
				C1239.2,1063.7,1226.5,1068.5,1213.5,1072.7z M974.2,1076.1c2.3-0.7,4.9-1.4,8-2l0.3-0.1l0.3,0.1c15.3,3,61.9,12.1,115.5,13.5
				c48,1.2,103.4-10.5,151.9-32.2c82-36.7,155.2-95.1,211.6-168.8c10-13,19.6-24.6,29-35.8c11.5-13.7,22.3-26.6,31.3-39.5
				c25.1-36.1,34.4-65.4,29.5-92.3c-3.9-21.1-17.2-59.9-63.1-82.3c-47.2-23-114-63.7-164-126.8c-33-41.6-57.1-90.8-80.5-138.3
				c-13.6-27.8-27.8-56.5-43.5-83.6c-56.2-96.3-142.6-169.6-237.2-201.1c-97.8-32.6-208-14.5-287.7,47.4
				c-25.2,19.6-48.2,45.5-70.4,70.5c-17.4,19.6-35.4,39.9-54.1,56.7c-27.5,24.6-61.6,31.4-97.8,38.5c-7.3,1.4-14.8,2.9-22.2,4.6
				c-50.6,11.2-143.4,41-195.5,114.7c-44.3,62.7-44.8,149.3-1.1,197l0.3,0.3l0.1,0.4c5.6,23.2,17.4,41.8,32.4,65.4
				c8.3,13.1,17.7,28,27.1,45.5c56.6,42.5,90.9,112.4,124.1,179.9c10,20.4,20.4,41.6,31.3,61.7c40.6,75.2,86.4,128.7,140.3,163.7
				c59.7,38.7,134,54.9,203.9,44.4c83.2-12.5,143.8-46.7,158.2-89.4l0.2-0.6l0.6-0.3c3.3-1.6,5.8-3.2,8.2-4.7
				C964.9,1080.2,968.3,1078,974.2,1076.1z"/>
		</g>
		<g>
			<path class="st0" d="M1195.2,1073.3c-39.1,12.6-79.6,18.6-115.9,16.8c-49.7-2.5-93.9-12.5-118.8-21.1c-11.7,0.5-16.2,1.7-22,3.2
				c-2,0.5-4.2,1.1-6.9,1.7c-15.5,39-74.4,69.1-157.7,80.7c-68.9,9.6-141.4-6.3-198.9-43.7c-52.4-34.1-96.8-86.4-135.6-160
				c-10.4-19.7-20.3-40.3-29.9-60.2c-32.4-67.6-63.1-131.4-115.7-172l-0.3-0.2l-0.2-0.4c-6.9-15.4-13.8-28.8-19.8-40.6
				c-13.3-26.2-23.9-46.9-27.2-71.4c-41.1-46.8-39-130.6,4.7-191.1c50.8-70.2,141.1-100.4,190.4-112.1c6.7-1.6,13.5-3.1,20.1-4.5
				c34.7-7.5,67.6-14.7,93.4-38.8c16.5-15.4,32.8-33.7,48.6-51.3c24.1-26.9,49-54.7,76.7-75.3l0.9,1.2l-0.9-1.2
				c80-59.4,189.2-75.8,284.8-42.7c92.8,32.1,177.5,105,232.4,200c15.4,26.5,29.1,54.7,42.4,81.9c23.6,48.3,48,98.2,81.7,139.9
				c38,46.9,92,88.5,160.6,123.7c35,18,57.4,50.8,61.4,90.1c3.8,37-19.8,71.4-37.9,94c-8,10.1-17.2,20.1-26.9,30.7
				c-11.7,12.7-23.7,25.8-36,41.4c-56.9,71.8-128.3,128.9-206.5,165.1C1223.2,1063.3,1209.3,1068.7,1195.2,1073.3z M929.4,1071.4
				l0.8-0.2c3-0.6,5.3-1.3,7.6-1.8c6-1.6,10.7-2.8,22.9-3.4l0.6,0.1c24.7,8.5,68.7,18.5,118.2,21c48.9,2.4,105.7-9.5,155.8-32.7
				c77.8-36,148.8-92.8,205.4-164.3c12.4-15.6,24.5-28.8,36.2-41.6c9.7-10.5,18.8-20.5,26.8-30.5c17.7-22.2,40.9-55.9,37.2-91.8
				c-1.8-18.1-11.4-62.9-59.8-87.7c-69-35.4-123.4-77.3-161.6-124.5c-34-42-58.5-92-82.1-140.5c-13.3-27.2-27-55.3-42.3-81.8
				c-54.6-94.4-138.7-166.8-230.8-198.6c-94.7-32.8-202.8-16.6-282,42.3C654.8,156,630,183.7,606,210.5
				c-15.8,17.7-32.1,35.9-48.8,51.5c-26.5,24.8-59.7,32-94.9,39.6c-6.6,1.4-13.3,2.9-20,4.5c-48.9,11.6-138.4,41.5-188.6,110.9
				c-43.1,59.6-45.1,142-4.6,187.6l0.3,0.4l0.1,0.5c3.1,24.2,13.6,44.8,26.9,70.9c6,11.8,12.8,25.1,19.7,40.4
				c53,41,85.2,108,116.3,172.8c9.6,19.9,19.4,40.5,29.8,60.1c38.6,73.1,82.6,125,134.6,158.8c56.9,36.9,128.6,52.7,196.8,43.2
				c82.8-11.5,140.9-41.3,155.6-79.6L929.4,1071.4z"/>
		</g>
		<g>
			<path class="st0" d="M1177.2,1073.8c-39.5,12.8-80.4,18.4-116.8,15.8c-42.1-3.1-77.8-14.6-103.9-23.1c-6.9-2.2-12.8-4.1-18-5.6
				c-11.7-3.3-16.7-3.1-23.1-2.8c-2.1,0.1-4.4,0.2-7.2,0.2c-15.9,34.3-72.2,60-154.9,70.6c-67.1,8.6-137-6.9-191.6-42.5
				c-50.5-33-93-83.7-129.9-155.1c-9.9-19.2-19.3-39.3-28.4-58.7c-30.3-64.7-58.9-125.8-108-164.9l-0.3-0.3l-0.1-0.4
				c-4.3-11.5-8.5-22.1-12.2-31.5c-12.6-31.6-21.7-54.5-22-81c-37.7-44.6-34.1-124.2,8.3-181.5c48.8-65.9,135.9-96.1,183.5-108.2
				c5.9-1.5,11.8-2.9,17.7-4.3c33.8-8,65.8-15.6,90.7-40c14.3-14,28-29.2,42.6-45.4c26.1-29,53-59,83.3-80.5
				c79.4-56.4,186.4-70.8,279-37.6c90.2,32.4,172.6,104.3,226,197.4c14.9,26,28.3,53.5,41.2,80.2c23.9,49.1,48.6,100,83.4,142
				c36.3,43.9,88.2,83.6,158.4,121.4c50.8,27.4,57.5,76,58,95.6c1,37.2-23.9,69.4-45.7,93.3c-7.1,7.8-15,15.5-23.3,23.7
				c-13.1,12.9-27.9,27.5-42.3,44.9c-57.2,69.7-126.4,125.2-200.1,160.5C1207.2,1063,1192.3,1068.9,1177.2,1073.8z M906.4,1055.2
				l1,0c3.1,0.1,5.5-0.1,7.9-0.2c6.6-0.3,11.8-0.5,24,2.9c5.2,1.5,11.2,3.4,18.1,5.7c26,8.4,61.5,19.9,103.2,23
				c49.9,3.6,108.1-8.5,159.7-33.2c73.3-35.1,142.2-90.3,199.1-159.7c14.4-17.6,29.3-32.2,42.5-45.1c8.3-8.2,16.1-15.9,23.2-23.6
				c21.4-23.5,45.9-55.1,44.9-91.2c-0.5-19.1-7-66.5-56.5-93.1c-70.6-38-122.7-77.9-159.3-122.1c-35-42.3-59.8-93.3-83.7-142.6
				c-12.9-26.6-26.3-54.1-41.1-80c-53-92.5-134.8-163.9-224.4-196.1C873.3,66.9,767.4,81.2,688.7,137l-0.9-1.2l0.9,1.2
				c-30.1,21.3-56.9,51.2-82.8,80.1c-14.6,16.2-28.3,31.5-42.7,45.6c-25.5,24.9-57.9,32.6-92.1,40.7c-5.9,1.4-11.8,2.8-17.7,4.3
				c-47.2,12-133.5,41.9-181.8,107.1c-41.8,56.4-45.4,134.7-8.1,178.3l0.3,0.4l0,0.5c0.2,26.1,9.2,48.9,21.8,80.4
				c3.7,9.3,7.8,19.7,12.1,31.1c49.4,39.6,78.1,100.8,108.5,165.7c9.1,19.4,18.4,39.4,28.3,58.6c36.6,70.9,78.8,121.3,128.8,154
				c54.1,35.2,123.2,50.5,189.6,42.1c82.3-10.5,138.1-35.9,153-69.7L906.4,1055.2z"/>
		</g>
		<g>
			<path class="st0" d="M1159.4,1074.3c-40,12.9-81.2,18.2-117.9,14.7c-50.9-4.8-93.9-23.1-119.5-34l-5.5-2.3
				c-15.7-6.6-20.4-7.7-31.6-10.3c-16.1,29.6-70,51-152,60.5c-65.3,7.5-132.5-7.5-184.4-41.3c-48.7-31.8-89.3-80.9-124.1-150.2
				c-9.4-18.7-18.3-38.3-26.9-57.2c-28.1-61.8-54.7-120.1-100.2-157.8l-0.3-0.3l-0.1-0.4c-1.6-5.3-3.1-10.3-4.5-15.1
				c-12.3-40.9-20.4-68-16.9-97.7C241,540.4,246.1,465,287.3,410.9c44.5-58.5,120.5-89,176.5-104.3c5.1-1.4,10.2-2.7,15.2-4
				c32.9-8.6,64.1-16.7,88.1-41.2c11.8-12.1,23.4-25,35.7-38.6c28.3-31.5,57.5-64.1,90.9-86.7l0.8,1.2l-0.8-1.2
				c78.8-53.4,183.5-65.8,273.2-32.4c87.7,32.6,167.7,103.6,219.5,194.8c14.5,25.4,27.5,52.4,40.1,78.5c24.2,50,49.2,101.7,84.9,144
				c44.7,52.8,106.9,91.4,156.1,119.2c53.6,30.2,55.4,85.1,54.7,101.2c-1.7,38-29.5,69.5-53.5,92.6c-6.4,6.1-13.3,12.2-20.6,18.6
				c-14.8,13.1-31.6,27.8-47.6,46.6c-57.7,67.8-124.7,121.7-193.8,155.8C1191.3,1062.7,1175.5,1069.1,1159.4,1074.3z M883.4,1039.1
				l2,0.5c11.5,2.6,16.2,3.7,32.2,10.5l5.5,2.3c27.2,11.6,68.2,29,118.7,33.8c51,4.8,110.6-7.4,163.7-33.7
				c68.7-34,135.4-87.6,192.9-155.1c16.1-18.9,33-33.8,47.9-46.9c7.3-6.4,14.2-12.5,20.5-18.6c23.7-22.8,51-53.7,52.7-90.7
				c0.7-15.7-1.1-69.2-53.2-98.6c-49.4-27.9-111.9-66.7-156.9-119.8c-36-42.6-61.1-94.5-85.3-144.6c-12.6-26-25.6-53-40-78.3
				c-51.5-90.6-130.9-161.1-218-193.5C877,73.3,773.3,85.6,695.2,138.5c-33.1,22.4-62.2,54.8-90.4,86.2
				c-12.3,13.7-23.8,26.6-35.7,38.7c-24.6,25.1-56.1,33.3-89.4,42c-5,1.3-10.1,2.6-15.2,4c-55.6,15.2-131,45.4-175,103.3
				c-40.5,53.3-45.6,127.4-11.6,168.9l0.4,0.5l-0.1,0.6c-3.6,29.3,4.5,56.3,16.7,97.2c1.4,4.7,2.9,9.6,4.4,14.7
				C345.2,732.5,371.8,791,400,853c8.6,18.9,17.5,38.4,26.9,57.1c34.6,68.8,74.9,117.6,123.2,149.1c51.3,33.4,117.8,48.3,182.5,40.9
				c82-9.4,135.4-30.7,150.4-60L883.4,1039.1z"/>
		</g>
		<g>
			<path class="st0" d="M1141.7,1074.7c-40.5,13.1-82,18-119.1,13.7c-55.1-6.4-99.4-28.2-128-44c-5.5-3-9.7-5.5-13.4-7.7
				c-6.9-4-11.9-7-19.7-10.4c-20.3,31.1-92.1,44.6-149.1,50.4c-63.6,6.5-128.1-8.1-177.1-40.1c-46.2-30.3-86-79.2-118.4-145.3
				c-9-18.3-17.4-37.4-25.5-55.8c-26-58.8-50.5-114.4-92.5-150.5l-0.3-0.3l-0.1-0.4c-10.8-48.9-17.1-80.6-8.6-113.2
				c-31.5-41-24.9-110.6,15.5-162.3c42.5-54.3,115.6-84.6,169.5-100.4c4.2-1.2,8.3-2.4,12.5-3.6c32.2-9.2,62.6-17.8,85.8-42.6
				c9.1-9.7,18.1-19.8,27.6-30.5c30.8-34.5,62.6-70.2,99.6-94.1l0.7,1.1l-0.7-1.1c78.1-50.3,180.5-60.8,267.4-27.2
				c85.2,32.9,162.8,102.9,213,192.2c14,24.9,26.7,51.3,39,76.9c24.4,50.9,49.7,103.4,86.5,146c42.7,49.4,101.8,86.3,153.9,117
				c43.7,25.7,55.1,72,51.3,106.7c-4.3,39.1-35.1,69.6-61.4,91.9c-5.8,4.9-12,9.8-18.6,15c-16.3,12.8-34.9,27.3-52.2,46.9
				c-59.2,67.1-122.3,118-187.4,151.2C1175.5,1062.3,1158.7,1069.2,1141.7,1074.7z M860.4,1023.1l1.1,0.4c8.6,3.6,13.8,6.7,21.1,11
				c3.7,2.2,7.9,4.6,13.3,7.6c28.4,15.7,72.4,37.4,127,43.7c52.1,6,113.2-6.4,167.6-34.1c64.8-33.1,127.6-83.7,186.6-150.6
				c17.5-19.8,36.1-34.4,52.5-47.3c6.6-5.1,12.7-10,18.5-14.9c25.9-21.9,56.2-52,60.4-90.1c3.7-33.9-7.4-79-50-104.1
				c-52.3-30.8-111.6-67.8-154.5-117.5c-37-42.8-62.4-95.6-86.9-146.6c-12.2-25.5-24.9-51.8-38.9-76.7
				c-49.9-88.7-127.1-158.3-211.6-191c-86-33.2-187.6-22.9-265,27c-36.7,23.6-68.4,59.2-99,93.6c-9.5,10.7-18.5,20.8-27.7,30.5
				c-23.8,25.3-54.5,34.1-87,43.4c-4.1,1.2-8.3,2.4-12.5,3.6c-53.5,15.7-126.2,45.8-168.2,99.5C267.5,461.4,261,530,292.3,570
				l0.4,0.5l-0.2,0.6c-8.5,32.2-2.4,63.6,8.4,112.2c42.3,36.5,66.8,92.2,92.8,151.2c8.1,18.4,16.5,37.5,25.5,55.7
				c32.2,65.7,71.7,114.3,117.5,144.3c48.5,31.7,112.4,46.2,175.4,39.7c81.7-8.4,132.8-25.7,147.8-50.2L860.4,1023.1z"/>
		</g>
		<g>
			<path class="st0" d="M1124.2,1075.2c-41,13.2-82.9,17.8-120.5,12.8c-57-7.7-102.7-32.3-131-51.6c-7.8-5.3-13.2-9.7-18.1-13.7
				c-5.4-4.4-10-8.1-16.5-12.1c-16,19.9-63.9,33.2-146.3,40.5c-62.7,5.6-123-8.3-169.9-39c-44.4-29.2-82.3-76.4-112.7-140.4
				c-8.5-17.9-16.4-36.5-24.1-54.6c-23.8-55.8-46.2-108.5-84.7-143.2l-0.3-0.3l-0.1-0.5c-7.4-49.2-8.9-82,4.2-113.7
				c-28.1-38.8-20-104.3,19-152.7c31.9-39.5,85.3-71.6,159-95.4c1.2-0.4,2.4-0.8,3.6-1.2c3.2-1,6.3-2,9.5-3
				c31.5-9.8,61.3-19.1,83.8-44.2c6-6.7,12-13.6,18.2-20.6c33.6-38.3,68.3-77.9,109.6-103.3c78.5-48,176.2-56.3,261.5-22.1
				c82.6,33.1,157.9,102.2,206.5,189.6c13.6,24.4,26,50.3,37.9,75.3c24.7,51.7,50.2,105.1,88,147.9c41.4,46.9,98.5,82,148.9,113.1
				l2.7,1.7c44.9,27.6,53.8,77.7,47.9,112.1c-7,40.3-40.6,69.9-69.2,91.2c-5.5,4.1-11.2,8.1-17.3,12.3
				c-17.7,12.3-37.7,26.2-56.1,46.2c-61.1,66.7-120.4,114.6-181.1,146.5C1159.8,1062,1142.1,1069.4,1124.2,1075.2z M837.4,1007.1
				l1,0.6c7.2,4.3,12.1,8.3,17.8,12.9c4.8,3.9,10.2,8.3,17.9,13.5c28.1,19.1,73.4,43.6,129.9,51.2c53.4,7.2,116-5.4,171.5-34.6
				c60.4-31.8,119.4-79.6,180.4-146c18.6-20.3,38.7-34.3,56.5-46.6c6.1-4.2,11.8-8.2,17.2-12.2c28.2-21,61.4-50.1,68.2-89.6
				c5.8-33.7-2.9-82.6-46.7-109.5l-2.7-1.7c-50.6-31.1-107.9-66.4-149.5-113.5c-38-43.1-63.6-96.7-88.4-148.5
				c-11.9-25-24.2-50.8-37.8-75.1c-48.4-86.9-123.2-155.5-205.3-188.5C883,85.6,786.1,93.7,708.3,141.4l0,0
				c-41,25.1-75.6,64.6-109.1,102.8c-6.1,7-12.2,13.9-18.2,20.6c-23,25.7-53.1,35-84.9,44.9c-3.1,1-6.3,2-9.5,3
				c-75,23.7-129.3,55.9-161.4,95.7c-38.5,47.7-46.5,112.3-18.6,150.2l0.4,0.6l-0.3,0.7c-13.1,31.3-11.7,63.7-4.4,112.5
				c38.6,35,61.2,87.8,85,143.8c7.7,18,15.6,36.6,24.1,54.5c30.2,63.6,67.8,110.5,111.8,139.4c46.4,30.4,106.1,44.1,168.3,38.6
				c82.8-7.3,130.3-20.5,145.2-40.4L837.4,1007.1z"/>
		</g>
		<g>
			<path class="st0" d="M1106.8,1075.6c-41.4,13.4-83.9,17.7-122,11.8c-65-10-111.8-41.4-134-59.3c-8.5-6.8-14.2-12.7-19.8-18.4
				c-5.1-5.3-10-10.2-16.4-15.2c-19.6,19-80.4,25.9-143.4,30.6c-60.9,4.5-118.7-8.9-162.7-37.8C466,959.2,430,913.6,401.7,851.7
				c-8-17.6-15.5-35.8-22.7-53.4c-21.6-52.8-42-102.6-76.9-135.7l-0.3-0.3l0-0.5c-4.3-54.2,0.3-85.2,17-114.1
				c-24.7-36.6-15-98,22.6-143.1c31-37.2,81.9-67.5,155.6-92.6l6-2.1c31-10.5,60.3-20.4,82.2-46.1l6.9-8.1
				c35-41.2,74.7-87.9,121.5-115c77.6-45,173.2-51.3,255.7-16.9c81.2,33.9,152.2,100.3,200.1,187c13.2,23.9,25.2,49.2,36.8,73.7
				c24.9,52.5,50.7,106.8,89.5,149.8c37,41,85.1,71.6,131.6,101.1c6,3.8,11.9,7.6,17.8,11.4c46,29.6,52.7,81.9,44.5,117.6
				c-9.6,41.8-46.2,70.3-77,90.5c-5.2,3.4-10.7,6.8-16.5,10.3c-18.9,11.5-40.2,24.6-59.5,44.8c-40,41.9-101.5,102.2-174.7,141.9
				C1144,1061.6,1125.6,1069.5,1106.8,1075.6z M814.5,991.2l0.9,0.7c7,5.3,12.1,10.6,17.5,16.1c5.5,5.6,11.2,11.5,19.5,18.2
				c22,17.7,68.4,48.8,132.8,58.8c54.8,8.5,118.8-4.3,175.5-35.1c72.9-39.6,134.3-99.7,174.1-141.4c19.5-20.4,41-33.6,60-45.2
				c5.8-3.5,11.2-6.9,16.4-10.3c30.4-19.9,66.5-48,75.9-89c8.1-35,1.5-86.1-43.4-115c-5.9-3.8-11.8-7.5-17.8-11.4
				c-46.6-29.6-94.8-60.3-132.1-101.5c-39.1-43.3-64.9-97.7-89.9-150.4c-11.6-24.4-23.6-49.7-36.8-73.6
				C1119.6,225.7,1049,159.7,968.4,126c-81.8-34.1-176.6-27.9-253.6,16.8l-0.6-1l0.6,1c-46.5,26.9-86,73.5-120.9,114.5l-6.9,8.1
				c-22.3,26.2-51.9,36.2-83.2,46.8l-6,2c-73.3,25-123.8,55.1-154.5,91.9c-37.2,44.5-46.6,105.1-22,140.8l0.4,0.6l-0.4,0.7
				c-16.7,28.5-21.3,59.1-17.1,112.9c35,33.4,55.5,83.4,77.1,136.2c7.2,17.6,14.7,35.8,22.7,53.3c28.2,61.5,63.8,106.7,106.1,134.5
				c43.5,28.6,100.8,41.9,161.2,37.4c63.4-4.7,124.5-11.7,142.6-30.6L814.5,991.2z"/>
		</g>
		<g>
			<path class="st0" d="M1089.6,1076c-41.9,13.5-84.9,17.5-123.6,10.8c-71.6-12.4-119.6-50.9-136.9-66.9
				c-8.9-8.2-14.9-15.6-20.8-22.9c-5.3-6.5-10.3-12.6-16.9-18.7c-19.2,13.6-75.5,16.9-140.6,20.7c-59.1,3.5-114.3-9.5-155.4-36.6
				c-40.8-27-74.9-70.9-101.2-130.7c-7.6-17.3-14.6-35.1-21.4-52.4c-19.4-49.7-37.7-96.6-69-128l-0.3-0.3l0-0.5
				c-0.7-52.6,8-85.9,29.8-114.5c-21.2-34.5-10-91.6,26.1-133.5c38.2-44.2,99.5-70.6,148.7-88.7l2-0.7c30.7-11.3,59.8-22,81.1-48.4
				c38.2-47.1,79.6-95.4,129.1-122.5l0.5,1l-0.5-1c76.6-42,170.1-46.4,249.9-11.7c78.5,34.1,147.3,99.6,193.6,184.4
				c12.8,23.5,24.5,48.2,35.8,72.2c25.1,53.4,51.1,108.5,91,151.7c33.6,36.4,76.5,64.2,118,91.2c10.1,6.6,19.6,12.7,29.1,19.1
				c44.2,29.6,52.5,83.2,41.1,123.1c-12.6,44-54.4,72.3-84.8,89.8c-5.1,3-10.5,5.8-16.1,8.8c-19.9,10.7-42.5,22.8-62.5,43
				c-50,50.3-104.9,101.7-168.4,137.2C1128.4,1061.3,1109.1,1069.7,1089.6,1076z M791.5,975.4l0.7,0.6c7.1,6.4,12.3,12.8,17.8,19.6
				c5.8,7.1,11.8,14.5,20.6,22.6c17.2,15.9,64.8,54.1,135.8,66.3c56.3,9.7,121.7-3.3,179.4-35.6c63.2-35.4,118-86.7,167.9-136.9
				c20.3-20.4,43-32.6,63.1-43.4c5.6-3,11-5.9,16-8.8c30-17.3,71.4-45.2,83.7-88.4c11.2-39.1,3.1-91.6-40.2-120.6
				c-9.5-6.3-19-12.5-29.1-19.1c-41.6-27-84.7-54.9-118.4-91.5c-40.1-43.4-66.2-98.7-91.4-152.3c-11.3-23.9-23-48.7-35.7-72.1
				c-46.1-84.4-114.5-149.5-192.5-183.4c-79.2-34.4-171.9-30-247.9,11.6c-49.1,26.9-90.3,75-128.4,121.9
				c-21.8,26.8-51.1,37.6-82.1,49.1l-2,0.7C459.9,334,398.9,360.3,361,404c-35.8,41.4-46.7,97.9-25.5,131.4l0.4,0.7l-0.5,0.6
				c-21.7,28.3-30.4,61.1-29.8,113.3c31.4,31.8,49.8,78.8,69.2,128.5c6.8,17.3,13.7,35.1,21.3,52.4c26.1,59.3,59.9,103,100.4,129.7
				c40.7,26.8,95.4,39.7,154,36.2c65.6-3.9,122.2-7.2,140.1-20.8L791.5,975.4z"/>
		</g>
		<g>
			<path class="st0" d="M1072.4,1076.4c-42.4,13.7-85.9,17.3-125.3,9.8c-75.2-14.3-122.9-56.9-139.9-74.5
				c-9.1-9.5-15.5-18.5-21.6-27.1c-5.5-7.8-10.7-15.1-17.6-22.4c-14.8,6.8-49,7.9-96,9.4c-13.3,0.4-27.1,0.9-41.8,1.5
				c-40.5,1.7-99.1-3-148.2-35.4c-39.1-25.9-71.2-68.2-95.5-125.8c-7.2-17-13.7-34.7-20-51.7c-17.2-46.5-33.5-90.4-61.2-120.2
				l-0.3-0.3l0-0.5c2.8-52.3,15.5-86.8,42.6-114.9c-17.7-32.2-5.1-85.3,29.6-123.9c35-38.8,88.8-63.7,141.7-84.9
				c28.1-11.2,57.1-22.8,78.1-50.1c32.6-42.3,76.8-94.4,129.7-121.8c75.6-39,166.8-41.5,244.1-6.6c75.8,34.3,142.3,98.8,187.1,181.8
				c12.4,23,23.8,47.3,34.8,70.8c25.3,54.2,51.6,110.2,92.4,153.5c30.8,32.6,69.5,58,107,82.7c13.2,8.7,25.6,16.8,37.8,25.3
				c45.1,31.5,51.1,88.7,37.7,128.5c-11.8,34.9-41.2,63.2-92.6,89.1c-5.1,2.6-10.4,5.1-16,7.7c-20.9,9.7-44.5,20.8-65.2,40.8
				c-47.2,45.6-100.7,97.2-162,132.6C1112.7,1061,1092.7,1069.9,1072.4,1076.4z M768.4,959.6l0.5,0.6c7.2,7.6,12.6,15.2,18.3,23.2
				c6.1,8.6,12.4,17.5,21.4,26.9c16.9,17.5,64.1,59.7,138.7,73.9c57.8,11,124.6-2.2,183.4-36.1c61.1-35.3,114.5-86.8,161.6-132.3
				c21-20.2,44.8-31.4,65.8-41.2c5.6-2.6,10.9-5.1,16-7.7c50.8-25.6,79.9-53.5,91.5-87.9c13.2-39.1,7.2-95.2-36.9-126.1
				c-12.2-8.5-24.6-16.7-37.8-25.3c-37.6-24.7-76.5-50.2-107.4-83c-41.1-43.5-67.4-99.7-92.8-154c-11-23.5-22.3-47.7-34.7-70.7
				c-44.6-82.5-110.7-146.8-186.1-180.9c-76.6-34.6-167.2-32.2-242.2,6.5l-0.5-1l0.5,1c-52.5,27.1-96.5,79-129,121.2
				c-21.4,27.7-50.7,39.4-79,50.8c-52.7,21-106.2,45.8-140.9,84.3c-34.4,38.2-46.8,90.7-29,122.1l0.4,0.7l-0.6,0.6
				c-27,27.8-39.7,61.8-42.5,113.7c27.8,30.1,44.1,74.1,61.3,120.6c6.3,17,12.8,34.6,20,51.6c24.1,57.2,55.9,99.2,94.7,124.8
				c48.6,32.1,106.7,36.8,146.9,35.1c14.7-0.6,28.5-1.1,41.8-1.5c45.8-1.5,81.9-2.7,95.8-9.5L768.4,959.6z"/>
		</g>
		<g>
			<path class="st0" d="M1055.3,1076.9c-42.8,13.8-87,17.1-127.1,8.8c-78.4-16.2-126-62.8-142.8-82.1c-9.4-10.7-16-21.2-22.3-31.3
				c-5.8-9.1-11.2-17.7-18.4-26.3c-10.6,2.3-30.6,1.9-58.2,1.4c-21.3-0.4-47.9-0.9-76.8-0.2c-39.3,1-95.6-4.2-141-34.3
				c-37.4-24.9-67.6-65.5-89.7-120.9c-6.8-16.9-12.8-34.3-18.7-51.2c-15-43.2-29.2-84-53.3-112.1l-0.3-0.3l0.1-0.4
				c6.2-52.5,23.3-88.1,55.4-115.4c-14.5-30.5-0.6-78.4,33.1-114.3c35.9-38.1,93-62.9,134.7-81c28.7-12.4,53.9-24.8,73-51
				c43.9-60.2,86.5-99.8,130.3-121.1l0,0c74.5-36.1,163.5-36.6,238.3-1.4c73.1,34.5,137.3,98.1,180.7,179.2
				c12.1,22.5,23.1,46.3,33.8,69.4c25.5,55,51.9,111.8,93.9,155.2c28.4,29.4,63.7,52.7,97.9,75.3c15.7,10.3,30.4,20.1,44.7,30.5
				c46.1,33.6,50.1,93,34.3,134c-17.5,45.3-56.9,80-100.6,88.5c-28.5,5.5-58.3,21.6-83.7,45.1c-5.7,5.3-11.5,10.7-17.3,16.1
				c-43.1,40.2-87.7,81.7-138.4,111.9C1097.1,1060.7,1076.4,1070.1,1055.3,1076.9z M308.8,627.8c24.2,28.4,38.4,69.2,53.4,112.4
				c5.9,16.8,11.9,34.2,18.7,51.1c22,55,51.9,95.4,89,120c44.9,29.8,100.8,34.9,139.8,33.9c28.9-0.7,55.5-0.2,76.9,0.2
				c27.9,0.5,48.1,0.9,58.3-1.4l0.6-0.1l0.4,0.5c7.5,8.8,13,17.6,18.9,27c6.3,10,12.9,20.4,22.2,31.1
				c16.7,19.1,63.9,65.4,141.7,81.4c59.4,12.3,127.7-1.1,187.3-36.6c50.5-30.1,95-71.5,138-111.6c5.8-5.4,11.6-10.8,17.3-16.1
				c25.7-23.8,55.8-39.9,84.7-45.6c43-8.4,81.8-42.6,99-87.2c15.5-40.3,11.6-98.7-33.6-131.6c-14.2-10.3-29-20.1-44.6-30.4
				c-34.3-22.6-69.7-46-98.2-75.6c-42.2-43.6-68.7-100.7-94.3-155.8c-10.7-23-21.7-46.8-33.7-69.3c-43.2-80.7-107-144-179.7-178.3
				c-74.2-35-162.6-34.4-236.5,1.4l-0.4-0.9l0.4,0.9c-43.5,21.1-85.9,60.5-129.5,120.4c-19.4,26.6-44.9,39.2-73.9,51.7
				c-41.6,18-98.5,42.7-134.1,80.5c-33,35-46.9,83.5-32.5,112.7l0.4,0.7l-0.6,0.5C332.1,540.6,315,575.8,308.8,627.8z"/>
		</g>
		<g>
			<path class="st0" d="M1039.1,1076.8c-43.7,14.1-89.3,17.3-129.8,8.3c-57.3-12.7-110.4-45.4-145.7-89.7c-9.6-12-16.4-23.9-23-35.4
				c-6-10.5-11.7-20.4-19.2-30.2c-6.1-0.2-15.3-1.1-26.9-2.4c-24.7-2.6-61.9-6.6-105.4-6.3c-55.2,0.3-100.2-10.8-133.7-33.1
				c-35.7-23.8-63.9-62.9-84-116c-6.4-16.9-12-34.2-17.4-51c-12.8-39.8-24.9-77.3-45.4-103.6l-0.3-0.3l0.1-0.4
				c9.5-52.9,31.2-89.7,68.3-115.8c-10.9-28.2,4.4-72.1,36.6-104.7c31.5-31.8,78-53.7,119.1-73l8.7-4.1c29.4-13.9,51.1-27.4,68-52
				C637,226.7,682.2,173,740,146.8c73.3-33.2,160.2-31.8,232.4,3.7c70.4,34.6,132.3,97.3,174.2,176.6c11.7,22.1,22.4,45.4,32.8,68
				c25.7,55.8,52.3,113.5,95.3,157c26.4,26.6,58.8,48.1,90.1,68.8c17.7,11.7,34.4,22.7,50.1,34.7c45.1,34.2,49.7,96,30.9,139.4
				c-19.7,45.7-62.2,80.2-108.3,87.8c-31,5.1-61.7,19.9-86.4,41.7c-10.5,9.3-21.4,19.2-31.8,28.7c-36.9,33.7-75.1,68.5-117.5,94.6
				C1082.1,1060.1,1060.8,1069.8,1039.1,1076.8z M310.4,616.7c20.6,26.6,32.7,64.1,45.5,103.9c5.4,16.8,11,34.1,17.3,50.9
				c19.9,52.8,47.9,91.5,83.3,115.1c33.2,22.1,77.8,33.1,132.7,32.8c43.5-0.3,80.9,3.7,105.6,6.3c11.8,1.3,21.1,2.2,27.1,2.4l0.5,0
				l0.3,0.4c7.7,10,13.5,20.1,19.6,30.8c6.6,11.4,13.4,23.3,22.8,35.2c35,43.9,87.8,76.4,144.7,89c60.2,13.4,131.8-0.5,191.3-37
				c42.3-26,80.4-60.7,117.2-94.4c10.5-9.6,21.3-19.4,31.9-28.8c24.9-22,55.9-37,87.3-42.2c45.4-7.5,87.4-41.5,106.9-86.7
				c18.5-42.7,14-103.6-30.3-137.1c-15.7-11.9-32.4-22.9-50-34.6c-31.4-20.8-63.9-42.3-90.4-69.1c-43.2-43.7-69.9-101.6-95.7-157.5
				c-10.4-22.5-21.1-45.8-32.8-67.9c-41.7-78.9-103.3-141.3-173.3-175.8c-71.8-35.3-158.1-36.7-230.8-3.7l-0.4-0.9l0.4,0.9
				c-57.4,26-102.4,79.4-130.1,119.7c-17.1,24.9-39,38.6-68.7,52.7l-8.7,4.1c-40.9,19.2-87.3,41-118.5,72.6
				c-32,32.4-47.1,75.8-35.9,103.4l0.3,0.7l-0.6,0.4C341.5,527.8,319.9,564.2,310.4,616.7z"/>
		</g>
		<g>
			<path class="st0" d="M1022.2,1077.3c-44.1,14.3-90.4,17.1-131.8,7.3c-59.3-14-113.4-49.5-148.7-97.3
				c-9.7-13.2-16.8-26.5-23.6-39.4c-6.3-11.9-12.2-23.1-20.1-34.2c-18.5-4.9-67-17.6-129.5-18.5c-54.1-0.8-95.5-11.2-126.5-31.9
				c-34-22.8-60.3-60.2-78.3-111.1c-6-17-11.1-34.4-16-51.3c-10.6-36.2-20.6-70.3-37.5-94.7l-0.2-0.3l0.1-0.4
				C323,552,349.5,514,391.3,489.3c-7.4-25.9,9.4-65.8,40.1-95.1c27.4-26.2,66.6-45.9,101.1-63.2c6.7-3.4,13.3-6.7,19.7-10
				c22.3-11.5,45.4-25.9,62.9-53c21.3-33,66.8-92.3,131.5-119.6c72-30.4,156.7-27,226.6,8.9c67.7,34.8,127.2,96.6,167.7,174
				c11.3,21.7,21.8,44.5,31.9,66.6c25.9,56.6,52.6,115.2,96.7,158.7c24.6,24.3,54.5,44,83.4,63.1c18.5,12.2,37.6,24.8,54.6,38.2
				c46,36.3,48.7,100.3,27.6,144.8c-21.9,46.1-67.5,80.3-116,87.1c-23.7,3.3-58.5,12.7-89.1,38.4c-14.2,11.9-28,24.4-42.6,37.6
				c-31.7,28.7-64.5,58.3-100.4,81.1C1066.6,1059.8,1044.7,1070,1022.2,1077.3z M312,605.6c17,24.6,27,58.8,37.6,94.9
				c4.9,16.8,10,34.3,16,51.2c17.8,50.6,43.9,87.7,77.6,110.3c30.7,20.5,71.7,30.8,125.5,31.6c63.1,0.9,111.9,13.8,130.2,18.6
				l0.3,0.1l0.2,0.3c8,11.3,14,22.6,20.4,34.6c6.8,12.8,13.8,26.1,23.5,39.2c35,47.4,88.8,82.7,147.7,96.6
				c62,14.7,135,0.7,195.3-37.5c35.8-22.7,68.5-52.3,100.2-80.9c14-12.6,28.4-25.7,42.6-37.6c30.9-26,66-35.5,89.9-38.8
				c48-6.7,93-40.5,114.7-86.1c20.8-43.9,18.2-107-27.1-142.7c-16.9-13.3-35.1-25.4-54.4-38.1c-29-19.1-59-38.9-83.7-63.3
				c-44.3-43.7-71.1-102.4-97.1-159.2c-10.1-22.1-20.5-44.9-31.8-66.5c-40.3-77.1-99.6-138.7-167-173.3
				c-69.5-35.7-153.6-39-225.1-8.8l-0.3-0.8l0.3,0.8c-64.3,27.1-109.5,86.2-130.7,119c-17.8,27.4-41.1,42-63.6,53.6
				c-6.4,3.3-13,6.6-19.7,10c-34.4,17.3-73.5,36.9-100.7,62.9c-30.5,29.2-47.1,68.7-39.4,94l0.2,0.7l-0.6,0.4
				C351.2,514.8,324.8,552.5,312,605.6z"/>
		</g>
		<g>
			<path class="st0" d="M1005.3,1077.8c-44.6,14.4-91.5,16.9-133.8,6.3c-61.1-15.4-116.3-53.6-151.6-104.9
				c-9.9-14.4-17.2-29.1-24.2-43.4c-6.5-13.3-12.7-25.8-20.9-38.2c-23.8-11.8-71.1-26.3-126.8-28.3c-36.2-1.3-82.4-6-119.3-30.7
				c-31.9-21.5-57-58.2-72.5-106.3c-5.6-17.3-10.2-35-14.6-52.2c-8.4-32.4-16.3-62.9-29.7-85.3l-0.2-0.3l0.1-0.3
				c16.2-54.2,47.8-93.5,94-116.6c-3.8-24,14-59,43.5-85.6c23.6-21.2,54.8-37.7,84.9-53.6c10.2-5.4,19.8-10.5,29-15.7
				c26.8-15.2,44.1-31.3,57.9-54c34-56.1,82.2-99.4,132.1-118.9c70.6-27.6,153.2-22.3,220.8,14c64.9,34.9,122.2,95.8,161.2,171.4
				c11,21.2,21.1,43.6,30.9,65.3c26,57.4,52.9,116.9,98.1,160.4c23,22.2,50.8,40.4,77.6,58c19.8,13,40.3,26.4,58.1,41.1
				c21.5,17.7,34.7,42.6,38.2,72.2c3.1,26.2-2,54.7-14.1,78.1c-24,46.5-72.6,80.4-123.8,86.4c-37.7,4.4-67.7,15.9-91.7,35.1
				c-16.9,13.5-34,28.9-50.4,43.8c-27.4,24.7-55.6,50.2-86.2,70.3C1051.1,1059.6,1028.5,1070.3,1005.3,1077.8z M313.5,594.4
				c13.4,22.5,21.4,53.1,29.7,85.4c4.4,17.1,9,34.8,14.6,52.1c10.8,33.3,32,78.5,71.9,105.4c36.5,24.5,82.5,29.1,118.4,30.4
				c56.1,2,103.8,16.7,127.7,28.6l0.2,0.1l0.1,0.2c8.3,12.5,14.8,25.8,21.1,38.5c7,14.2,14.2,28.8,24.1,43.2
				c35,51,89.9,88.9,150.6,104.2c63.9,16.1,138.4,1.9,199.2-38c30.5-20,58.7-45.5,86-70.1c16.5-14.9,33.6-30.3,50.5-43.9
				c24.3-19.4,54.5-31,92.6-35.5c50.6-5.9,98.7-39.5,122.5-85.5c22.6-43.8,22-110.7-23.8-148.2c-17.8-14.6-38.2-28-58-41
				c-26.9-17.6-54.7-35.9-77.8-58.1c-45.4-43.7-72.4-103.3-98.4-160.9c-9.8-21.6-19.9-44-30.9-65.2c-38.9-75.4-96-136-160.6-170.7
				c-67.2-36.1-149.2-41.3-219.4-13.9l-0.3-0.8l0.3,0.8c-49.6,19.4-97.5,62.5-131.3,118.2c-13.9,22.9-31.4,39.2-58.5,54.5
				c-9.2,5.2-18.8,10.3-29,15.7c-30,15.9-61.1,32.3-84.6,53.4c-29.4,26.4-47,61.2-42.9,84.7l0.1,0.6l-0.5,0.3
				C361.2,501.7,329.7,540.6,313.5,594.4z"/>
		</g>
		<g>
			<path class="st0" d="M988.5,1078.3c-45,14.5-92.6,16.7-135.9,5.2c-62.8-16.7-119.2-57.7-154.5-112.4
				c-10.1-15.6-17.5-31.7-24.7-47.2c-6.5-14-13.2-28.6-21.8-42.3c-21.3-15.5-66.5-34.7-124.1-38.2c-38.9-2.3-79.4-7.5-112-29.5
				c-38.3-25.9-57.4-69.4-66.8-101.4c-5.3-18-9.3-36.2-13.1-53.8c-6.2-28.3-12.1-55-22.1-75l-0.1-0.3l0.1-0.3
				c19.6-55,56.5-95.5,106.9-117c-0.1-21.6,19.1-52.8,47-76.1c20-16.7,45.4-30.7,70-44.2c13.2-7.2,25.6-14.1,37-21.2
				c23.3-14.5,39.5-31.5,52.8-54.9c31.4-55.5,81-99.6,132.7-118.2c69.3-24.9,149.6-17.6,215,19.2c62.1,35,117.1,94.9,154.8,168.8
				c10.6,20.8,20.5,42.8,30,64c26.1,58.3,53.1,118.5,99.5,162.1c21.6,20.3,47.5,37.1,72.4,53.3c20.9,13.6,42.5,27.6,61,43.4
				c47.3,40.4,46,110.4,20.8,155.7c-29.1,52.4-87.5,75.6-131.4,85.7c-6.1,1.4-12.3,2.6-18.9,3.9c-25.7,5-52.3,10.2-75.6,27.9
				c-19,14.4-37.9,31.5-56.1,48c-23.6,21.4-48.1,43.6-74.2,61.4C1035.7,1059.3,1012.5,1070.6,988.5,1078.3z M315,583.3
				c10,20.2,15.8,46.8,22,75.1c3.9,17.6,7.9,35.8,13.1,53.7c9.3,31.7,28.3,74.9,66.2,100.6c32.3,21.8,72.6,27,111.3,29.3
				c58,3.5,103.6,22.9,125,38.5l0.2,0.2c8.6,13.8,15.4,28.4,21.9,42.6c7.2,15.5,14.6,31.5,24.6,47c35.1,54.5,91.1,95.2,153.6,111.8
				c65.9,17.5,141.9,3.1,203.2-38.5c26.1-17.7,50.5-39.8,74.1-61.3c18.2-16.5,37.1-33.6,56.2-48.1c23.6-17.9,51.6-23.4,76.3-28.2
				c6.6-1.3,12.8-2.5,18.8-3.9c43.6-10.1,101.6-33,130.4-85c24.9-44.8,26.2-113.9-20.5-153.8c-18.4-15.7-40-29.7-60.8-43.3
				c-25-16.3-50.9-33.1-72.6-53.5c-46.5-43.7-73.6-104.1-99.8-162.5c-9.5-21.2-19.3-43.1-29.9-63.9
				c-37.6-73.6-92.3-133.4-154.2-168.2c-65-36.6-145-43.7-213.7-19.1l-0.3-0.7l0.3,0.7c-51.4,18.4-100.7,62.4-131.9,117.5
				c-13.4,23.7-29.9,40.8-53.3,55.5c-11.4,7.1-23.9,14-37,21.2c-24.5,13.5-49.8,27.4-69.7,44.1c-32.4,27.1-46.8,58.1-46.4,75.4
				l0,0.5l-0.5,0.2C371.4,488.5,334.6,528.7,315,583.3z"/>
		</g>
		<g>
			<path class="st0" d="M972.6,1078.3c-45.8,14.8-94.9,16.9-138.8,4.7c-64.5-18-121.9-61.7-157.4-120c-8.6-14.2-14.6-29.3-20.4-44
				c-7.6-19.3-14.8-37.5-27.5-53.5c-16-20.1-59.7-42.7-121.5-48c-36.5-3.2-74.7-7.9-104.8-28.4c-36.3-24.7-53.2-66.1-61-96.5
				c-4.9-19-8.2-38.1-11.3-56.5c-4.1-23.8-7.9-46.3-14.6-63.7l-0.1-0.3l0.1-0.3c23.3-56.6,64.7-97.2,119.8-117.4
				c3.1-16.2,19.8-43,50.4-66.6c16.5-12.7,36.5-24,55.9-35c15.9-9,30.9-17.4,44.1-26.6c20.3-14.1,34.6-30.8,47.8-55.9
				c29.3-55.8,79.1-99.7,133.3-117.5c0.3-0.1,0.5-0.2,0.8-0.2c67.5-21.8,145.4-12.6,208.4,24.6c60.1,35.5,111.4,93,148.3,166.2
				c10.3,20.4,19.8,41.9,29,62.7c26.2,59.1,53.4,120.2,100.8,163.7c20.4,18.7,44.5,34.2,67.8,49.1c21.8,14,44.4,28.5,63.3,45.4
				c48,42.8,44.8,114.9,17.5,161.1c-25.2,42.6-74.7,72.8-139.2,85c-6.4,1.2-12.9,2.2-19.8,3.3c-26.3,4-53.6,8.2-77.4,25.2
				c-20.6,14.8-40.6,33.1-59.9,50.8c-20.5,18.8-41.6,38.2-64.1,54C1020.8,1058.8,997.2,1070.4,972.6,1078.3z M316.6,572.2
				c6.7,17.5,10.5,40,14.6,63.7c3.2,18.4,6.4,37.5,11.3,56.4c7.8,30.1,24.6,71.2,60.5,95.7c29.8,20.2,67.8,25,104.2,28.1
				c62.2,5.4,106.3,28.2,122.5,48.6c12.8,16.1,20,34.4,27.7,53.8c5.8,14.6,11.7,29.7,20.3,43.8c35.3,58,92.4,101.5,156.6,119.4
				c67,18.7,146.4,3.7,207.2-39c22.4-15.7,43.5-35.1,63.9-53.9c19.3-17.7,39.3-36.1,60-50.9c24-17.2,51.4-21.4,77.9-25.5
				c6.9-1.1,13.4-2,19.8-3.3c37.1-7.1,104.5-27.4,138.2-84.4c27.1-45.7,30.3-117.1-17.2-159.4c-18.8-16.8-41.4-31.2-63.2-45.2
				c-23.4-15-47.5-30.5-68-49.3c-47.7-43.7-74.9-104.9-101.2-164.2c-9.2-20.8-18.7-42.2-29-62.6c-36.8-73-87.9-130.3-147.8-165.6
				c-62.7-37-140.1-46.1-207.3-24.4c-0.3,0.1-0.5,0.2-0.8,0.2l-0.2-0.6l0.2,0.6c-53.9,17.6-103.4,61.3-132.5,116.8
				c-13.3,25.3-27.7,42.2-48.2,56.4c-13.2,9.2-28.3,17.7-44.2,26.6c-19.4,10.9-39.4,22.2-55.8,34.8c-30.6,23.6-47.1,50.2-49.9,66.1
				l-0.1,0.4l-0.4,0.1C381.1,475.6,339.8,515.9,316.6,572.2z"/>
		</g>
		<g>
			<path class="st0" d="M956,1078.9c-46.2,14.9-96.1,16.6-141,3.5c-66.2-19.3-124.6-65.8-160.3-127.6c-9-15.6-15.5-32.2-21.7-48.3
				c-7.9-20.3-15.3-39.5-27.6-57.1c-16.8-24-60-51.2-118.9-57.9l-1.6-0.2c-31.8-3.7-67.9-7.8-96-27c-26.8-18.4-46.5-50.9-55.3-91.6
				c-4.5-20.6-6.8-41-9-60.8c-2.1-18.8-4.1-36.5-7.8-50.8l-0.1-0.2l0.1-0.2c26.5-57,73.1-98.6,131.2-117.4c0.5-0.2,1-0.3,1.5-0.5
				c5.8-13.1,23.3-35.7,53.8-57.1c12.8-9,27.8-17.5,42.3-25.7c17.7-10.1,36.1-20.5,50.7-31.9c21.4-16.6,33.2-37.2,42.7-56.9
				c26.8-55.5,78.2-100.3,133.9-116.7C839.2,135,915.2,146,976.5,184c57.2,35.5,106.3,92.1,141.9,163.6c9.9,20,19.2,41,28.1,61.4
				c26.3,60,53.6,122,102.2,165.4c19.3,17.2,41.8,31.5,63.7,45.3c22.6,14.3,46,29.1,65.2,46.9c21.6,20,34.4,48.8,36.1,81
				c1.6,29.6-6.5,60.8-22,85.5c-37.5,59.7-108.2,78.5-146.9,84.4c-6.8,1-13.6,1.8-20.9,2.6c-26.9,3-54.7,6.2-79,22.5
				c-21.8,14.7-42.4,33.9-62.3,52.5c-17.7,16.5-36,33.6-55.4,47.7C1005.5,1058.6,981.3,1070.7,956,1078.9z M318.1,561
				c3.6,14.4,5.6,32.1,7.7,50.8c2.2,19.7,4.5,40.2,9,60.7c8.8,40.4,28.2,72.6,54.8,90.8c27.8,19,63.8,23.1,95.5,26.8l1.6,0.2
				c59.2,6.8,102.8,34.3,119.7,58.5c12.4,17.6,20.2,37.8,27.7,57.3c6.2,16,12.6,32.6,21.6,48.1c35.5,61.5,93.7,107.8,159.6,127
				c69.2,20.2,150.1,5.1,211.1-39.5c19.3-14.1,37.6-31.1,55.2-47.6c19.9-18.6,40.5-37.8,62.4-52.6c24.5-16.5,52.5-19.7,79.5-22.7
				c7.2-0.8,14.1-1.6,20.8-2.6c38.6-5.8,108.8-24.5,146.1-83.8c29.3-46.6,34.3-120.2-13.9-164.9c-19.1-17.7-42.4-32.5-65-46.8
				c-21.9-13.9-44.5-28.2-63.8-45.4c-48.8-43.6-76.1-105.7-102.5-165.8c-8.9-20.3-18.2-41.4-28.1-61.3
				c-35.5-71.3-84.4-127.7-141.4-163.1c-60.9-37.8-136.6-48.7-202.4-29.3c-55.5,16.4-106.5,60.8-133.1,116.1
				c-9.6,19.9-21.5,40.6-43.1,57.3c-14.7,11.4-33.1,21.9-50.9,32c-14.5,8.2-29.4,16.8-42.2,25.7c-30.5,21.3-47.9,43.9-53.5,56.8
				l-0.1,0.3l-0.3,0.1c-0.6,0.2-1.2,0.4-1.8,0.6C390.8,463.2,344.5,504.5,318.1,561z"/>
		</g>
		<g>
			<path class="st0" d="M939.4,1079.5c-46.6,15-97.2,16.3-143.3,2.3c-67.8-20.6-127.3-69.9-163.2-135.2c-9.4-17.1-16.3-35.3-23-52.8
				c-7.7-20.4-15.8-41.5-27.7-60.4c-16.2-25.8-56.4-59.1-116.2-67.9c-2.7-0.4-5.5-0.8-8.2-1.2c-28.6-4.1-58.1-8.3-82.1-24.8
				c-34.2-23.6-45.7-64.5-49.6-86.7c-4-23.1-4.8-46.5-5.5-67.2c-0.4-13-0.9-25.3-2-35.8l0-0.2l0.1-0.1
				c30.6-59.1,82.3-101.1,145.6-118.2c11.7-14.7,33-32.5,57.3-47.6c8.9-5.5,18.4-10.9,28.5-16.5c20.5-11.5,41.7-23.3,57.6-37.3
				c18.3-16,27.9-35.7,37.7-57.9c24.8-56.3,76.4-100.7,134.5-116c64.5-17,138.3-4,197.5,34.6c54.3,35.4,101.1,91.1,135.4,161
				c9.6,19.6,18.5,40.2,27.2,60.1c26.4,60.8,53.8,123.7,103.6,167c18.2,15.8,39.4,29,59.9,41.8c23.2,14.5,47.3,29.5,66.6,48.2
				c21.7,21,34.3,50.8,35.4,83.9c1,30.7-7.9,62.8-24.6,88c-30,45.3-86.4,75.8-154.7,83.7c-7.2,0.8-14.4,1.4-22,2
				c-27.4,2.1-55.8,4.3-80.5,19.9c-22.7,14.3-43.4,34.1-63.5,53.2c-15.3,14.6-31.1,29.7-47.8,42.3
				C990.2,1058.4,965.4,1071.1,939.4,1079.5z M319.6,549.9c1.1,10.5,1.6,22.8,2,35.7c0.7,20.7,1.5,44.1,5.5,67.1
				c3.8,22.1,15.2,62.6,49.1,86c23.8,16.4,53.2,20.6,81.7,24.6c2.8,0.4,5.5,0.8,8.2,1.2c60.2,8.9,100.7,42.4,117,68.4
				c12,19,20,40.2,27.8,60.6c6.7,17.5,13.5,35.6,22.9,52.7c35.8,65,95.1,114.1,162.6,134.6c71.6,21.8,154,6.4,215.1-40
				c16.6-12.6,32.4-27.7,47.7-42.3c20.1-19.2,40.9-39,63.7-53.3c25-15.7,53.5-17.9,81-20c7.6-0.6,14.8-1.1,21.9-2
				c68-7.9,124.1-38.2,153.9-83.2c31.8-48,36.6-124.9-10.6-170.5c-19.3-18.6-43.3-33.6-66.4-48c-20.5-12.8-41.8-26-60.1-41.9
				c-50-43.5-77.4-106.5-103.9-167.4c-8.6-19.9-17.6-40.5-27.2-60c-34.2-69.7-80.9-125.3-135-160.6c-59-38.5-132.5-51.4-196.7-34.5
				c-57.8,15.2-109.1,59.4-133.8,115.4c-9.8,22.3-19.5,42.1-37.9,58.3c-16,14.1-37.3,25.9-57.8,37.4c-10.1,5.6-19.6,10.9-28.4,16.5
				c-24.2,15.1-45.5,32.8-57.1,47.5l-0.1,0.1l-0.2,0C401.7,449.3,350.2,491.1,319.6,549.9z"/>
		</g>
		<g>
			<path class="st0" d="M923.3,1080c-10.2,3.3-20.6,5.9-31.3,7.9c-38.9,7.2-78.6,4.9-114.8-6.5c-69.3-21.9-129.9-73.9-166.1-142.7
				c-9.8-18.7-17.2-38.4-24.3-57.6c-7.9-21.4-16.1-43.4-27.7-63.6c-17.7-30.8-56.8-67.4-113.6-77.8c-4.3-0.8-8.7-1.5-13-2.3
				c-24.4-4.1-49.6-8.3-70.1-22.6c-23.6-16.5-39.6-46.3-43.8-81.8c-3.2-27-1.2-54.6,0.5-76.8c0.5-6.2,0.9-12.1,1.2-17.6l0.1-0.2
				c34.1-59.9,91.8-103.1,158.5-118.6c14.9-11.5,36.5-25,60.7-38.1c4.3-2.3,8.7-4.6,13.3-7c22.8-12,48.6-25.6,65.9-42.9
				c15.4-15.4,22.9-34.4,30.8-54.5l1.8-4.4c22.4-56.2,75.4-101.5,135.1-115.3c31.4-7.2,65.6-7.3,99-0.2c32.7,6.9,64.8,20.8,92.7,40
				c51.3,35.3,95.9,90.1,128.9,158.4c9.3,19.2,17.9,39.3,26.3,58.8c26.5,61.7,53.9,125.5,104.9,168.7c17.3,14.6,37.2,26.8,56.5,38.6
				c23.8,14.5,48.4,29.6,67.7,49.1c21.8,21.9,34.1,52.8,34.6,86.9c0.5,31.8-9.4,64.8-27.2,90.4c-32.6,46.9-91.8,77.2-162.4,83
				c-7.6,0.6-15.5,1-23.1,1.3c-27.9,1.2-56.8,2.4-82.1,17.2c-23.3,13.6-43.9,33.8-63.8,53.2c-13.2,12.9-26.9,26.3-41.2,37.7
				C975.5,1057.9,950.4,1071.2,923.3,1080z M321.2,538.7c-0.3,5.5-0.7,11.3-1.2,17.5c-1.7,23.3-3.7,49.7-0.5,76.6
				c4.2,35.3,20,64.8,43.4,81.1c20.3,14.1,45.4,18.3,69.7,22.4c4.3,0.7,8.8,1.5,13.1,2.3c57.1,10.5,96.5,47.3,114.3,78.3
				c11.6,20.3,19.8,42.4,27.8,63.8c7.1,19.1,14.4,38.9,24.2,57.5c36.1,68.6,96.5,120.4,165.6,142.2c74.1,23.4,158.1,7.9,219.1-40.5
				c14.3-11.3,28-24.7,41.2-37.6c19.9-19.5,40.5-39.7,64-53.4c25.5-14.9,54.5-16.1,82.5-17.3c7.7-0.3,15.6-0.7,23.1-1.3
				c70.3-5.8,129.3-36,161.7-82.6c33.9-48.8,40.4-128-7.3-176c-19.3-19.4-43.8-34.4-67.6-48.9c-19.3-11.8-39.3-24-56.6-38.7
				c-51.2-43.3-78.7-107.2-105.2-169c-8.4-19.5-17-39.6-26.3-58.7c-33-68.2-77.4-122.9-128.6-158c-57.1-39.2-128.4-54-191-39.6
				c-59.3,13.7-112.1,58.7-134.4,114.7l-1.8,4.4c-8,20.2-15.6,39.3-31.1,54.8c-17.4,17.4-43.3,31-66.1,43c-4.6,2.4-9,4.7-13.3,7
				c-24.2,13.1-45.8,26.6-60.7,38.1l-0.1,0.1l-0.1,0C412.7,436.1,355.2,479.1,321.2,538.7z"/>
		</g>
		<g>
			<path class="st0" d="M907.3,1080.4c-47.7,15.4-100.7,16.2-148.9,0.4c-70.9-23.2-132.5-78-169-150.3c-10.2-20.3-18-41.7-25.6-62.5
				c-8.1-22.3-16.5-45.3-27.8-66.6c-23.7-44.7-65.2-77.5-111-87.7c-5.4-1.2-11-2.3-16.4-3.3c-20.7-4-42.1-8.1-59.5-20.3
				c-21.9-15.4-36.2-44.2-38.1-76.9c-1.9-33.3,2.1-64.6,11-85.9c27.9-66.6,100-95.3,171.3-119c11.8-3.9,24.9-10.2,40.2-17.4
				c7.6-3.6,15.6-7.4,24-11.2c25.8-11.6,54.8-25.7,72.3-46c12.1-14.1,17.7-30.7,23.6-48.3c1.3-3.8,2.6-7.7,4-11.6
				c10-28.2,28.3-54,52.9-74.5c24.2-20.2,52.8-34.1,82.8-40c31.2-6.2,63.8-5.2,96.8,3.1c31.5,7.9,62.3,22.3,89.2,41.8
				c49,35.6,90.2,88,122.5,155.8c8.9,18.7,17.3,38.4,25.4,57.5c26.6,62.6,54,127.4,106.3,170.4c16.4,13.5,35.2,24.8,53.4,35.7
				c24.2,14.5,49.2,29.5,68.5,49.8c21.8,22.9,33.8,54.8,33.8,89.9c0,33-10.9,66.8-29.8,92.8c-18.3,25.2-43.5,45.2-74.9,59.7
				c-28.5,13.1-61.4,20.9-95.2,22.7c-8,0.4-16.3,0.5-24.3,0.6c-28.4,0.3-57.8,0.7-83.6,14.6c-23.7,12.8-43.8,33.1-63.2,52.7
				c-11.4,11.5-23.1,23.4-35.5,33.6C960.3,1057.9,934.7,1071.6,907.3,1080.4z M772.8,165.2c-52.9,17.1-96.8,58.1-114.8,108.7
				c-1.4,3.9-2.7,7.8-4,11.6c-5.9,17.7-11.5,34.4-23.7,48.5c-17.6,20.4-46.7,34.6-72.5,46.3c-8.5,3.8-16.4,7.6-24,11.2
				c-15.3,7.3-28.5,13.5-40.3,17.5c-71.2,23.6-143,52.3-170.8,118.5c-8.9,21.1-12.8,52.3-10.9,85.5c1.9,32.5,16,61,37.7,76.3
				c17.2,12.1,38.6,16.2,59.2,20.2c5.4,1,11.1,2.1,16.4,3.3c24.7,5.5,47.6,17,67.9,34.2c17.7,14.9,32.7,33.5,43.6,54
				c11.3,21.4,19.7,44.4,27.8,66.7c7.5,20.7,15.3,42.2,25.6,62.4c36.4,72.1,97.9,126.7,168.6,149.9c75.6,24.8,163.2,8.7,223.1-40.9
				c12.3-10.2,24.1-22.1,35.4-33.6c19.4-19.7,39.6-40,63.4-52.8c25.9-14,55.4-14.3,84-14.7c8-0.1,16.3-0.2,24.3-0.6
				c72.7-3.8,134.5-33.7,169.5-82c35.9-49.5,44.3-131-4-181.6c-19.3-20.2-44.2-35.2-68.4-49.6c-18.2-10.9-37.1-22.2-53.5-35.7
				c-52.4-43.1-80-108-106.6-170.7c-8.1-19-16.4-38.7-25.3-57.4c-32.2-67.7-73.3-120-122.2-155.5c-55.2-40.1-124.4-56.8-185.3-44.7
				C786.2,161.3,779.4,163.1,772.8,165.2z"/>
		</g>
		<g>
			<path class="st0" d="M891,1081.2c-48,15.5-101.9,15.8-151.5-1c-72.4-24.5-135.1-82-172-157.8c-10.7-21.9-18.9-45.1-26.9-67.6
				c-8.2-23.1-16.7-47-27.8-69.4c-14.6-29.5-48.1-81.3-108.4-97.7c-6.1-1.6-12.4-3-18.6-4.4c-17.4-3.8-35.4-7.7-50.1-18.1
				c-20.4-14.5-32.8-42.1-32.3-72c0.4-26.9,7.8-55,20.2-77.2c17.4-31.1,43.9-57.5,78.7-78.5c30-18.1,65.5-31.9,105.4-40.9
				c25.4-5.7,46.9-11.8,67.7-19.2c31-11,53-25.2,65.3-42.2c9.6-13.2,13.6-28.4,17.9-44.4c1.4-5.4,2.9-11,4.6-16.4
				c17.9-57.5,72.6-103.2,136.2-113.8c30.6-5.1,62.4-2.9,94.5,6.4c30.2,8.7,59.8,23.8,85.6,43.7c45.9,35.3,84.9,86.8,116,153.2
				c8.6,18.3,16.6,37.5,24.4,56.1c26.6,63.6,54.2,129.3,107.7,172.1c15.6,12.5,33.4,22.9,50.6,33c24.5,14.4,49.9,29.2,69.1,50.2
				c21.8,23.9,33.6,56.9,33,92.9c-0.5,34.6-12,68.4-32.3,95.2c-19.4,25.8-46,46.2-78.8,60.5c-30,13.1-64.2,20.4-99.1,21.2
				c-8.4,0.2-17.1,0.1-25.5-0.1c-28.9-0.5-58.8-1-85,11.9c-24,11.8-43.2,32-61.9,51.6c-9.8,10.2-19.8,20.8-30.5,30.1
				C945.2,1057.8,919.1,1072.2,891,1081.2z M472,407.1c-68.5,22.1-120.3,60.2-147.8,109.2c-12.4,22.1-19.7,50.2-20.1,76.9
				c-0.4,29.7,11.9,57.1,32,71.5c14.5,10.3,32.5,14.2,49.8,18c6.2,1.3,12.6,2.7,18.7,4.4c23.9,6.5,46,19.4,65.7,38.2
				c16.9,16.2,31.8,36.9,43.1,59.8c11.1,22.4,19.6,46.3,27.9,69.5c8,22.4,16.2,45.7,26.9,67.5c36.8,75.6,99.3,133,171.5,157.5
				c78.5,26.6,167.7,10.3,227.1-41.4c10.6-9.2,20.7-19.8,30.4-30c18.7-19.6,38-39.9,62.1-51.7c26.4-13,56.4-12.5,85.4-12
				c8.4,0.1,17.1,0.3,25.5,0.1c74-1.8,140.3-32.2,177.3-81.4c43.3-57.2,43-139.4-0.7-187.2c-19.1-20.9-44.4-35.8-68.9-50.1
				c-17.2-10.1-35-20.5-50.7-33c-53.7-42.9-81.3-108.7-107.9-172.3c-7.8-18.6-15.8-37.8-24.4-56.1c-31.1-66.3-70-117.8-115.8-153
				c-54.2-41.6-119.6-59.8-179.6-49.9c-63.3,10.5-117.8,56-135.6,113.3c-1.7,5.5-3.2,11-4.6,16.4c-4.3,16.1-8.3,31.3-18,44.7
				c-12.4,17.1-34.5,31.4-65.7,42.4c-20.9,7.4-42.4,13.5-67.8,19.2C495.5,400.2,483.5,403.4,472,407.1z"/>
		</g>
		<g>
			<path class="st0" d="M875.5,1081.8c-10.5,3.4-21.4,6.1-32.6,8c-41,7-83.3,3.5-122.2-10.1c-37.7-13.2-72.6-35-103.5-64.9
				c-29-28-53.7-62.8-71.4-100.5c-11.1-23.6-19.8-48.6-28.2-72.8c-8.3-24-17-48.7-27.9-72.1c-18.4-39.3-51.6-89.9-105.7-107.6
				c-6.5-2.1-13.3-3.8-19.9-5.3c-14.5-3.5-29.4-7.1-41.6-15.9c-18.9-13.7-29.4-40-26.6-67.1c2.2-21.5,11.8-44,29.5-68.6
				c22.6-31.5,52.4-59,86.4-79.7c34-20.6,72.2-34.5,110.5-40c8.4-1.2,17.1-2.1,25.4-2.9c15.1-1.5,30.8-3.1,45.8-6.8
				c27-6.7,47.7-20.3,58.4-38.3c7.5-12.6,10.3-27.5,13.1-41.8c1.3-6.6,2.6-13.5,4.3-20c7.8-29.1,25.4-55.5,51.1-76.1
				c24.5-19.7,54.9-32.8,85.6-36.9c58.3-7.8,121.8,12.3,174.3,55.1c43.3,35.3,79.2,84.6,109.6,150.6c8.2,17.9,16,36.6,23.5,54.8
				c26.7,64.5,54.2,131.2,109.1,173.8c14.9,11.6,31.7,21.2,48,30.4c24.8,14.1,50.4,28.7,69.4,50.5c21.8,24.9,33.2,59,32.1,95.9
				c-1.1,35.7-13.4,70.4-34.8,97.6c-39.9,51-109.3,81.3-185.6,81.1c-8.8,0-17.9-0.4-26.7-0.8c-29.4-1.3-59.7-2.6-86.5,9.3
				c-24.1,10.7-42.3,30.7-60,50.1c-8.3,9.2-17,18.6-26.1,27C930.8,1057.4,904.7,1072.3,875.5,1081.8z M475.8,396.6
				c-59.6,19.3-113.7,57.9-150,108.6c-17.6,24.5-27.2,46.8-29.4,68.3c-2.7,26.9,7.6,53.1,26.4,66.6c12.1,8.7,27,12.3,41.4,15.8
				c6.6,1.6,13.4,3.2,19.9,5.4c54.3,17.7,87.7,68.5,106.1,107.9c10.9,23.4,19.5,48.2,27.9,72.1c8.4,24.2,17.2,49.2,28.2,72.8
				c37.2,79.2,100.8,139.4,174.5,165.1c80.4,28,173.2,11.2,231.1-41.9c9.1-8.4,17.7-17.8,26.1-27c17.7-19.4,36-39.5,60.2-50.2
				c26.9-11.9,57.4-10.6,86.8-9.4c8.8,0.4,17.9,0.8,26.7,0.8c76.1,0.2,145.4-30,185.2-80.8c45.4-57.9,46.5-142.6,2.7-192.8
				c-18.9-21.6-44.5-36.2-69.2-50.3c-16.3-9.3-33.1-18.9-48.1-30.5c-55-42.7-82.6-109.4-109.3-174c-7.5-18.1-15.3-36.9-23.5-54.7
				c-30.4-65.9-66.2-115.2-109.4-150.4c-52.4-42.7-115.7-62.8-173.9-55c-64.9,8.6-120.9,54.9-136.3,112.6c-1.7,6.5-3,13.4-4.3,20
				c-2.7,14.4-5.6,29.3-13.1,42c-10.8,18.2-31.7,31.9-58.8,38.6c-15,3.7-30.7,5.3-45.9,6.8c-8.4,0.8-17,1.7-25.4,2.9
				C506.6,388,491,391.6,475.8,396.6z"/>
		</g>
	</g>
</g>
</svg>
