<?xml version="1.0" encoding="utf-8"?>
<!-- Generator: Adobe Illustrator 28.2.0, SVG Export Plug-In . SVG Version: 6.00 Build 0)  -->
<svg version="1.1" id="Layer_2_00000129178484003454712130000000254057431829595826_"
	 xmlns="http://www.w3.org/2000/svg" xmlns:xlink="http://www.w3.org/1999/xlink" x="0px" y="0px" viewBox="0 0 1125.4 910.8"
	 style="enable-background:new 0 0 1125.4 910.8;" xml:space="preserve">
<style type="text/css">
	.st0{fill:#3D526A;}
</style>
<g id="Layer_1-2">
	<path class="st0" d="M605.1,650.6c0-143.5,116.7-260.2,260.2-260.2s260.2,116.7,260.2,260.2s-116.7,260.2-260.2,260.2
		S605.1,794,605.1,650.6z M612.5,650.6c0,139.4,113.4,252.8,252.8,252.8S1118,790,1118,650.6s-113.4-252.8-252.8-252.8
		S612.5,511.2,612.5,650.6z"/>
	<path class="st0" d="M778.6,874.2c-151.3,0-274.4-123.1-274.4-274.4s123.1-274.4,274.4-274.4S1053,448.4,1053,599.8
		S929.9,874.2,778.6,874.2L778.6,874.2z M778.6,332.7c-147.2,0-267,119.8-267,267s119.8,267,267,267s267-119.8,267-267
		S925.9,332.7,778.6,332.7L778.6,332.7z"/>
	<path class="st0" d="M692,837.6c-159.2,0-288.6-129.5-288.6-288.7S532.9,260.3,692,260.3s288.6,129.5,288.6,288.6
		S851.2,837.6,692,837.6L692,837.6z M692,267.7c-155.1,0-281.2,126.2-281.2,281.2S536.9,830.2,692,830.2S973.2,704,973.2,548.9
		C973.3,393.8,847.1,267.7,692,267.7L692,267.7z"/>
	<path class="st0" d="M302.5,498.1c0-167,135.9-302.9,302.9-302.9s302.9,135.9,302.9,302.9S772.4,801,605.4,801
		S302.5,665.1,302.5,498.1z M605.4,202.6c-162.9,0-295.5,132.5-295.5,295.5s132.5,295.5,295.5,295.5S900.9,661,900.9,498.1
		C900.9,335.2,768.3,202.6,605.4,202.6L605.4,202.6z"/>
	<path class="st0" d="M201.7,447.2c0-174.9,142.3-317.1,317.1-317.1s317.1,142.3,317.1,317.1S693.7,764.4,518.8,764.4
		S201.7,622.1,201.7,447.2z M518.8,137.5c-170.8,0-309.7,138.9-309.7,309.7S348,757,518.8,757S828.5,618,828.5,447.2
		S689.6,137.5,518.8,137.5L518.8,137.5z"/>
	<path class="st0" d="M432.2,727.8c-182.7,0-331.3-148.6-331.3-331.4S249.5,65.1,432.2,65.1s331.4,148.6,331.4,331.3
		C763.5,579.1,614.9,727.8,432.2,727.8L432.2,727.8z M108.3,396.4c0,178.6,145.3,323.9,323.9,323.9S756.1,575,756.1,396.4
		S610.8,72.5,432.2,72.5S108.3,217.8,108.3,396.4z"/>
	<path class="st0" d="M345.6,691.2C155,691.2,0,536.1,0,345.6S155,0,345.6,0s345.6,155,345.6,345.6
		C691.2,536.1,536.1,691.2,345.6,691.2L345.6,691.2z M7.4,345.6c0,186.5,151.7,338.2,338.2,338.2s338.2-151.7,338.2-338.2
		c0-186.5-151.7-338.2-338.2-338.2S7.4,159.1,7.4,345.6z"/>
</g>
</svg>
