<?xml version="1.0" encoding="utf-8"?>
<!-- Generator: Adobe Illustrator 28.2.0, SVG Export Plug-In . SVG Version: 6.00 Build 0)  -->
<svg version="1.1" id="Layer_2_00000182527053252077914700000001214311460683656359_"
	 xmlns="http://www.w3.org/2000/svg" xmlns:xlink="http://www.w3.org/1999/xlink" x="0px" y="0px" viewBox="0 0 181 41.8"
	 style="enable-background:new 0 0 181 41.8;" xml:space="preserve">
<g id="Layer_1-2">
	<polygon points="13.6,3.1 24.7,8.5 17.7,11.7 13.6,10 	"/>
	<polygon points="27.7,9.8 34.9,13.4 13.6,24.4 6.4,20.8 	"/>
	<polygon points="23.8,22.6 35.3,28 13.6,38.7 13.6,31.7 21.1,28 17.1,26.1 	"/>
	<path d="M20.9,41.8C9.4,41.8,0,32.4,0,20.9S9.4,0,20.9,0s20.9,9.4,20.9,20.9S32.4,41.8,20.9,41.8z M20.9,4.3
		c-9.1,0-16.5,7.4-16.5,16.5s7.4,16.5,16.5,16.5S37.4,30,37.4,20.9S30,4.3,20.9,4.3z"/>
	<g>
		<path d="M62.6,33.3c-6.6,0-11.9-4.9-11.9-11.9c0-7,5.3-11.8,11.9-11.8c6.6,0,11.8,4.9,11.8,11.8C74.4,28.4,69.1,33.3,62.6,33.3z
			 M62.6,28.2c3.7,0,6.1-2.7,6.1-6.7c0-4.1-2.4-6.7-6.1-6.7c-3.8,0-6.1,2.6-6.1,6.7C56.5,25.5,58.8,28.2,62.6,28.2z"/>
		<path d="M84.5,14.4c2.4,0,4.5,1.1,5.7,2.8V8.7h5.6v24.4h-5.6v-2.6c-1,1.7-3,2.9-5.7,2.9c-4.5,0-8.1-3.7-8.1-9.5S80,14.4,84.5,14.4
			z M86.2,19.3c-2.1,0-4,1.6-4,4.5s1.9,4.6,4,4.6c2.1,0,4-1.6,4-4.5S88.3,19.3,86.2,19.3z"/>
		<path d="M108.1,33.3c-5.4,0-9.3-3.6-9.3-9.5s3.8-9.5,9.3-9.5c5.4,0,9.2,3.6,9.2,9.2c0,0.5,0,1.1-0.1,1.6h-12.8
			c0.2,2.4,1.7,3.5,3.5,3.5c1.6,0,2.5-0.8,2.9-1.8h6C115.9,30.6,112.7,33.3,108.1,33.3z M104.4,22.1h7.1c0-2-1.6-3.2-3.5-3.2
			C106.2,18.9,104.8,20.1,104.4,22.1z"/>
		<path d="M127.7,33.3c-4.9,0-8.2-2.7-8.5-6.3h5.6c0.1,1.3,1.3,2.1,2.8,2.1c1.5,0,2.2-0.7,2.2-1.5c0-3-10-0.8-10-7.6
			c0-3.1,2.7-5.7,7.5-5.7c4.7,0,7.4,2.6,7.7,6.3h-5.2c-0.2-1.3-1.1-2.1-2.7-2.1c-1.3,0-2,0.5-2,1.4c0,2.9,10,0.9,10.1,7.7
			C135.2,30.9,132.3,33.3,127.7,33.3z"/>
		<path d="M146.7,14.4c4.6,0,7.9,2.5,8.8,6.9h-6c-0.5-1.3-1.4-2.1-2.9-2.1c-2,0-3.4,1.6-3.4,4.6c0,3.1,1.4,4.6,3.4,4.6
			c1.5,0,2.4-0.8,2.9-2.1h6c-1,4.3-4.2,6.9-8.8,6.9c-5.4,0-9.2-3.6-9.2-9.5C137.5,18.1,141.3,14.4,146.7,14.4z"/>
		<path d="M166.9,33.3c-5.4,0-9.5-3.6-9.5-9.5s4.2-9.5,9.6-9.5c5.4,0,9.6,3.6,9.6,9.5S172.3,33.3,166.9,33.3z M166.9,28.5
			c2,0,3.9-1.5,3.9-4.6c0-3.1-1.8-4.6-3.8-4.6c-2,0-3.8,1.5-3.8,4.6C163.2,27,164.9,28.5,166.9,28.5z"/>
	</g>
	<g>
		<path d="M177.9,31.8c0-0.9,0.7-1.5,1.6-1.5c0.9,0,1.5,0.6,1.5,1.5c0,0.9-0.6,1.5-1.5,1.5C178.6,33.3,177.9,32.7,177.9,31.8z
			 M178.3,31.8c0,0.7,0.4,1.1,1.1,1.1c0.7,0,1.1-0.5,1.1-1.1c0-0.7-0.4-1.1-1.1-1.1C178.8,30.7,178.3,31.1,178.3,31.8z M179.9,31.9
			l0.4,0.6h-0.6l-0.3-0.5h0v0.5h-0.5V31h0.8c0.3,0,0.5,0.2,0.5,0.5C180.2,31.7,180.1,31.9,179.9,31.9z M179.3,31.4v0.2h0.2
			c0.1,0,0.1,0,0.1-0.1c0-0.1,0-0.1-0.1-0.1H179.3z"/>
	</g>
</g>
</svg>
