<?xml version="1.0" encoding="utf-8"?>
<!-- Generator: Adobe Illustrator 28.2.0, SVG Export Plug-In . SVG Version: 6.00 Build 0)  -->
<svg version="1.1" id="Layer_2_00000182527053252077914700000001214311460683656359_"
	 xmlns="http://www.w3.org/2000/svg" xmlns:xlink="http://www.w3.org/1999/xlink" x="0px" y="0px" viewBox="0 0 200.7 41.8"
	 style="enable-background:new 0 0 200.7 41.8;" xml:space="preserve">
<g id="Layer_1-2">
	<path d="M76.9,9.8v23.1h-5.6V19.1l-5.2,13.9h-4.5L56.3,19v13.9h-5.6V9.8h6.7l6.5,16l6.4-16C70.3,9.8,76.9,9.8,76.9,9.8z"/>
	<path d="M83.7,32.1c-1.4-0.8-2.6-1.9-3.4-3.3c-0.8-1.4-1.2-3.1-1.2-5s0.4-3.5,1.2-5s2-2.5,3.4-3.3c1.4-0.8,3.1-1.1,4.9-1.1
		s3.4,0.4,4.9,1.1c1.4,0.8,2.6,1.9,3.4,3.3c0.8,1.4,1.2,3.1,1.2,5s-0.4,3.5-1.3,5s-2,2.5-3.5,3.3s-3.1,1.2-4.9,1.2
		S85.2,32.8,83.7,32.1L83.7,32.1z M91.3,27.1c0.8-0.8,1.1-1.9,1.1-3.4s-0.4-2.6-1.1-3.4s-1.6-1.2-2.7-1.2s-2,0.4-2.7,1.2
		c-0.7,0.8-1.1,1.9-1.1,3.4s0.4,2.6,1.1,3.4c0.7,0.8,1.6,1.2,2.7,1.2S90.6,27.9,91.3,27.1z"/>
	<path d="M100.4,18.8c0.7-1.4,1.7-2.5,2.9-3.3c1.2-0.8,2.6-1.1,4.1-1.1c1.2,0,2.3,0.2,3.3,0.8s1.8,1.2,2.4,2V8.6h5.6V33h-5.6v-2.6
		c-0.5,0.9-1.3,1.6-2.3,2.1c-1,0.5-2.1,0.8-3.4,0.8c-1.5,0-2.9-0.4-4.1-1.2c-1.2-0.8-2.2-1.9-2.9-3.3c-0.7-1.4-1.1-3.1-1.1-5
		S99.7,20.2,100.4,18.8z M112,20.4c-0.8-0.8-1.7-1.2-2.8-1.2s-2.1,0.4-2.8,1.2c-0.8,0.8-1.2,1.9-1.2,3.3s0.4,2.5,1.2,3.3
		s1.7,1.2,2.8,1.2s2.1-0.4,2.8-1.2s1.2-1.9,1.2-3.3S112.7,21.2,112,20.4L112,20.4z"/>
	<path d="M139.4,25.1h-12.8c0.1,1.1,0.5,2,1.1,2.6c0.6,0.6,1.4,0.9,2.4,0.9c1.4,0,2.4-0.6,2.9-1.8h6c-0.3,1.2-0.9,2.3-1.7,3.3
		c-0.8,1-1.8,1.7-3,2.3c-1.2,0.5-2.6,0.8-4.1,0.8c-1.8,0-3.4-0.4-4.8-1.2c-1.4-0.8-2.5-1.9-3.3-3.3c-0.8-1.4-1.2-3.1-1.2-5
		s0.4-3.6,1.2-5s1.9-2.5,3.3-3.3c1.4-0.8,3-1.1,4.8-1.1s3.4,0.4,4.8,1.1c1.4,0.8,2.5,1.8,3.2,3.2c0.8,1.4,1.2,3,1.2,4.8
		C139.5,24,139.4,24.5,139.4,25.1L139.4,25.1z M133.7,22c0-1-0.3-1.7-1-2.3c-0.7-0.6-1.5-0.9-2.5-0.9s-1.7,0.3-2.4,0.8
		s-1.1,1.3-1.2,2.3L133.7,22L133.7,22z"/>
	<path d="M144.9,32.4c-1.2-0.5-2.2-1.3-3-2.3c-0.7-1-1.1-2-1.2-3.2h5.6c0.1,0.6,0.4,1.1,0.9,1.5s1.2,0.6,1.9,0.6
		c0.7,0,1.2-0.1,1.6-0.4s0.6-0.6,0.6-1.1c0-0.5-0.3-0.9-0.8-1.2s-1.4-0.5-2.7-0.8c-1.3-0.3-2.4-0.6-3.3-1c-0.9-0.3-1.6-0.9-2.3-1.6
		c-0.6-0.7-1-1.7-1-3c0-1,0.3-2,0.9-2.9c0.6-0.9,1.4-1.6,2.6-2.1c1.1-0.5,2.5-0.8,4-0.8c2.3,0,4.1,0.6,5.4,1.7s2.1,2.7,2.3,4.5h-5.2
		c-0.1-0.6-0.4-1.1-0.8-1.5c-0.5-0.4-1.1-0.6-1.9-0.6c-0.7,0-1.2,0.1-1.5,0.4c-0.4,0.2-0.5,0.6-0.5,1c0,0.5,0.3,0.9,0.8,1.2
		s1.4,0.5,2.6,0.8c1.4,0.4,2.5,0.7,3.3,1c0.9,0.3,1.6,0.9,2.3,1.6s1,1.8,1,3c0,1.1-0.3,2-0.9,2.9c-0.6,0.9-1.5,1.5-2.6,2
		c-1.1,0.5-2.4,0.7-3.9,0.7C147.6,33.2,146.1,32.9,144.9,32.4L144.9,32.4z"/>
	<path d="M159.4,18.8c0.8-1.4,1.9-2.5,3.3-3.3c1.4-0.8,3-1.1,4.8-1.1c2.3,0,4.2,0.6,5.8,1.8s2.6,2.9,3.1,5.1h-6
		c-0.5-1.4-1.5-2.1-2.9-2.1c-1,0-1.9,0.4-2.5,1.2c-0.6,0.8-0.9,2-0.9,3.4s0.3,2.6,0.9,3.4c0.6,0.8,1.4,1.2,2.5,1.2
		c1.4,0,2.4-0.7,2.9-2.1h6c-0.5,2.1-1.5,3.8-3.1,5.1c-1.6,1.2-3.5,1.8-5.8,1.8c-1.8,0-3.4-0.4-4.8-1.2c-1.4-0.8-2.5-1.9-3.3-3.3
		c-0.8-1.4-1.2-3.1-1.2-5S158.6,20.2,159.4,18.8z"/>
	<path d="M182.1,32.1c-1.4-0.8-2.6-1.9-3.4-3.3c-0.8-1.4-1.2-3.1-1.2-5s0.4-3.5,1.2-5s2-2.5,3.4-3.3c1.4-0.8,3.1-1.1,4.9-1.1
		s3.4,0.4,4.9,1.1c1.4,0.8,2.6,1.9,3.4,3.3c0.8,1.4,1.2,3.1,1.2,5s-0.4,3.5-1.3,5s-2,2.5-3.5,3.3s-3.1,1.2-4.9,1.2
		S183.5,32.8,182.1,32.1L182.1,32.1z M189.7,27.1c0.8-0.8,1.1-1.9,1.1-3.4s-0.4-2.6-1.1-3.4s-1.6-1.2-2.7-1.2s-2,0.4-2.7,1.2
		c-0.7,0.8-1.1,1.9-1.1,3.4s0.4,2.6,1.1,3.4c0.7,0.8,1.6,1.2,2.7,1.2S188.9,27.9,189.7,27.1z"/>
	<path d="M199.9,30c0.3,0.1,0.5,0.4,0.6,0.6c0.1,0.3,0.2,0.6,0.2,0.9s-0.1,0.6-0.2,0.9c-0.1,0.3-0.4,0.5-0.6,0.6
		c-0.3,0.2-0.6,0.2-0.9,0.2s-0.6-0.1-0.9-0.2c-0.3-0.2-0.5-0.3-0.6-0.6s-0.2-0.6-0.2-0.9s0.1-0.6,0.2-0.9s0.4-0.5,0.6-0.6
		c0.3-0.1,0.6-0.2,0.9-0.2S199.6,29.8,199.9,30z M199.9,32.4c0.2-0.2,0.3-0.5,0.3-0.9s-0.1-0.7-0.3-0.9s-0.5-0.4-0.9-0.4
		s-0.7,0.1-0.9,0.4s-0.3,0.5-0.3,0.9s0.1,0.7,0.3,0.9s0.5,0.3,0.9,0.3S199.6,32.6,199.9,32.4z M199.6,31.5c-0.1,0.1-0.1,0.1-0.2,0.2
		l0.4,0.7h-0.6l-0.3-0.6h-0.1v0.6h-0.6v-1.7h0.9c0.2,0,0.3,0,0.4,0.1c0.1,0.1,0.2,0.2,0.2,0.4C199.7,31.3,199.7,31.4,199.6,31.5
		L199.6,31.5z M198.8,31.3h0.2c0.1,0,0.1,0,0.1-0.1c0-0.1,0-0.1-0.1-0.1h-0.2C198.8,31.1,198.8,31.3,198.8,31.3z"/>
	<polygon points="7.4,26.4 11.5,18 13.9,23.3 12.6,26.4 	"/>
	<polygon points="12.5,15.7 15.2,10.3 23.5,26.4 20.8,31.8 	"/>
	<polygon points="22.1,18.7 26.2,10 34.3,26.4 29,26.4 26.2,20.7 24.8,23.7 	"/>
	<path d="M20.9,41.8C9.4,41.8,0,32.4,0,20.9S9.4,0,20.9,0s20.9,9.4,20.9,20.9S32.4,41.8,20.9,41.8z M20.9,4.3
		c-9.1,0-16.5,7.4-16.5,16.5s7.4,16.5,16.5,16.5S37.4,30,37.4,20.9S30,4.3,20.9,4.3z"/>
</g>
</svg>
