<?xml version="1.0" encoding="UTF-8"?><svg id="Layer_2" xmlns="http://www.w3.org/2000/svg" viewBox="0 0 1125.41 910.76"><g id="Layer_1-2"><path d="M260.18,910.76C116.72,910.76,0,794.05,0,650.58s116.72-260.18,260.18-260.18,260.18,116.72,260.18,260.18-116.72,260.18-260.18,260.18ZM260.18,397.81c-139.38,0-252.77,113.39-252.77,252.77s113.39,252.77,252.77,252.77,252.77-113.39,252.77-252.77-113.39-252.77-252.77-252.77Z" fill="#fff" stroke-width="0"/><path d="M346.79,874.16c-151.31,0-274.42-123.1-274.42-274.41s123.1-274.41,274.42-274.41,274.41,123.1,274.41,274.41-123.1,274.41-274.41,274.41ZM346.79,332.74c-147.23,0-267.01,119.78-267.01,267s119.78,267,267.01,267,267-119.78,267-267-119.78-267-267-267Z" fill="#fff" stroke-width="0"/><path d="M433.4,837.56c-159.16,0-288.65-129.49-288.65-288.65s129.49-288.65,288.65-288.65,288.65,129.49,288.65,288.65-129.49,288.65-288.65,288.65ZM433.4,267.68c-155.07,0-281.24,126.16-281.24,281.24s126.16,281.24,281.24,281.24,281.24-126.16,281.24-281.24-126.16-281.24-281.24-281.24Z" fill="#fff" stroke-width="0"/><path d="M520.01,800.96c-167.01,0-302.88-135.87-302.88-302.88s135.87-302.88,302.88-302.88,302.88,135.87,302.88,302.88-135.87,302.88-302.88,302.88ZM520.01,202.61c-162.92,0-295.47,132.55-295.47,295.47s132.55,295.47,295.47,295.47,295.47-132.55,295.47-295.47-132.55-295.47-295.47-295.47Z" fill="#fff" stroke-width="0"/><path d="M606.61,764.36c-174.86,0-317.11-142.26-317.11-317.12s142.26-317.12,317.11-317.12,317.12,142.26,317.12,317.12-142.26,317.12-317.12,317.12ZM606.61,137.54c-170.77,0-309.7,138.93-309.7,309.71s138.93,309.71,309.7,309.71,309.71-138.93,309.71-309.71-138.93-309.71-309.71-309.71Z" fill="#fff" stroke-width="0"/><path d="M693.22,727.76c-182.71,0-331.35-148.64-331.35-331.35S510.51,65.07,693.22,65.07s331.35,148.64,331.35,331.35-148.64,331.35-331.35,331.35ZM693.22,72.48c-178.62,0-323.94,145.32-323.94,323.94s145.32,323.94,323.94,323.94,323.94-145.32,323.94-323.94S871.84,72.48,693.22,72.48Z" fill="#fff" stroke-width="0"/><path d="M779.83,691.16c-190.55,0-345.58-155.03-345.58-345.58S589.27,0,779.83,0s345.58,155.03,345.58,345.58-155.03,345.58-345.58,345.58ZM779.83,7.41c-186.47,0-338.17,151.7-338.17,338.17s151.7,338.17,338.17,338.17,338.17-151.7,338.17-338.17S966.3,7.41,779.83,7.41Z" fill="#fff" stroke-width="0"/></g></svg>