<?xml version="1.0" encoding="UTF-8"?><svg id="Layer_2" xmlns="http://www.w3.org/2000/svg" viewBox="0 0 200.68 41.78"><g id="Layer_1-2"><path d="M76.88,9.82v23.13h-5.63v-13.87l-5.17,13.87h-4.55l-5.21-13.91v13.91h-5.64V9.82h6.66l6.49,16.01,6.43-16.01h6.62Z" fill="#fff" stroke-width="0"/><path d="M83.72,32.06c-1.44-.77-2.57-1.87-3.39-3.3-.82-1.43-1.24-3.1-1.24-5.01s.42-3.55,1.25-4.99c.83-1.44,1.98-2.54,3.43-3.31,1.45-.77,3.08-1.15,4.88-1.15s3.43.38,4.88,1.15c1.45.77,2.59,1.87,3.43,3.31.83,1.44,1.25,3.1,1.25,4.99s-.42,3.55-1.27,4.99c-.85,1.44-2,2.54-3.46,3.31-1.46.77-3.09,1.15-4.89,1.15s-3.42-.38-4.86-1.15ZM91.33,27.15c.76-.79,1.14-1.92,1.14-3.39s-.37-2.6-1.1-3.39-1.64-1.19-2.72-1.19-2.01.39-2.74,1.17c-.72.78-1.09,1.92-1.09,3.41s.36,2.6,1.07,3.39c.71.79,1.61,1.19,2.69,1.19s1.99-.4,2.75-1.19Z" fill="#fff" stroke-width="0"/><path d="M100.42,18.75c.71-1.43,1.69-2.53,2.92-3.29,1.23-.77,2.6-1.15,4.12-1.15,1.21,0,2.31.25,3.31.76,1,.51,1.78,1.19,2.36,2.04v-8.53h5.64v24.38h-5.64v-2.64c-.53.88-1.28,1.58-2.26,2.11-.98.53-2.12.79-3.41.79-1.52,0-2.89-.39-4.12-1.17-1.23-.78-2.2-1.89-2.92-3.33-.71-1.44-1.07-3.1-1.07-4.99s.36-3.55,1.07-4.98ZM111.96,20.43c-.78-.81-1.73-1.22-2.85-1.22s-2.07.4-2.85,1.2c-.78.8-1.17,1.91-1.17,3.31s.39,2.52,1.17,3.34c.78.82,1.73,1.24,2.85,1.24s2.07-.41,2.85-1.22c.78-.81,1.17-1.92,1.17-3.33s-.39-2.52-1.17-3.33Z" fill="#fff" stroke-width="0"/><path d="M139.36,25.11h-12.75c.09,1.14.46,2.02,1.1,2.62s1.44.91,2.39.91c1.41,0,2.38-.59,2.93-1.78h6c-.31,1.21-.86,2.3-1.66,3.26-.8.97-1.81,1.72-3.02,2.27-1.21.55-2.56.82-4.05.82-1.8,0-3.41-.38-4.81-1.15-1.41-.77-2.5-1.87-3.29-3.3-.79-1.43-1.19-3.1-1.19-5.01s.39-3.58,1.17-5.01c.78-1.43,1.87-2.53,3.28-3.29,1.41-.77,3.02-1.15,4.84-1.15s3.36.37,4.75,1.12c1.38.75,2.47,1.81,3.25,3.2.78,1.38,1.17,3,1.17,4.84,0,.53-.03,1.08-.1,1.65ZM133.69,21.98c0-.97-.33-1.73-.99-2.31-.66-.57-1.48-.86-2.47-.86s-1.74.27-2.39.82-1.05,1.33-1.2,2.34h7.05Z" fill="#fff" stroke-width="0"/><path d="M144.89,32.39c-1.25-.55-2.24-1.3-2.97-2.26-.73-.96-1.13-2.03-1.22-3.21h5.57c.07.64.36,1.15.89,1.55.53.4,1.17.59,1.94.59.7,0,1.25-.14,1.63-.41.38-.27.58-.63.58-1.07,0-.53-.27-.92-.82-1.17-.55-.25-1.44-.53-2.67-.84-1.32-.31-2.42-.63-3.29-.97-.88-.34-1.64-.88-2.27-1.61-.64-.74-.96-1.73-.96-2.98,0-1.05.29-2.02.87-2.88.58-.87,1.44-1.55,2.57-2.06,1.13-.51,2.48-.76,4.04-.76,2.31,0,4.12.57,5.45,1.71,1.33,1.14,2.09,2.66,2.29,4.55h-5.21c-.09-.64-.37-1.14-.84-1.52-.47-.37-1.09-.56-1.86-.56-.66,0-1.16.13-1.52.38-.35.25-.53.6-.53,1.04,0,.53.28.92.84,1.19s1.43.53,2.62.79c1.36.35,2.47.7,3.33,1.04.86.34,1.61.89,2.26,1.65.65.76.98,1.77,1,3.05,0,1.08-.3,2.04-.91,2.88-.6.85-1.47,1.51-2.6,1.99-1.13.48-2.44.72-3.94.72-1.6,0-3.03-.27-4.28-.82Z" fill="#fff" stroke-width="0"/><path d="M159.41,18.75c.78-1.43,1.87-2.53,3.26-3.29,1.39-.77,2.99-1.15,4.79-1.15,2.31,0,4.23.6,5.78,1.81s2.56,2.91,3.05,5.11h-6c-.51-1.41-1.48-2.11-2.93-2.11-1.03,0-1.86.4-2.47,1.2-.62.8-.92,1.95-.92,3.44s.31,2.64.92,3.44c.62.8,1.44,1.2,2.47,1.2,1.45,0,2.43-.7,2.93-2.11h6c-.48,2.15-1.5,3.84-3.06,5.08-1.56,1.23-3.48,1.85-5.77,1.85-1.8,0-3.4-.38-4.79-1.15-1.4-.77-2.48-1.87-3.26-3.3-.78-1.43-1.17-3.1-1.17-5.01s.39-3.58,1.17-5.01Z" fill="#fff" stroke-width="0"/><path d="M182.08,32.06c-1.44-.77-2.57-1.87-3.39-3.3-.82-1.43-1.24-3.1-1.24-5.01s.42-3.55,1.25-4.99c.83-1.44,1.98-2.54,3.43-3.31,1.45-.77,3.08-1.15,4.88-1.15s3.43.38,4.88,1.15c1.45.77,2.59,1.87,3.43,3.31.83,1.44,1.25,3.1,1.25,4.99s-.42,3.55-1.27,4.99c-.85,1.44-2,2.54-3.46,3.31-1.46.77-3.09,1.15-4.89,1.15s-3.42-.38-4.86-1.15ZM189.69,27.15c.76-.79,1.14-1.92,1.14-3.39s-.37-2.6-1.1-3.39-1.64-1.19-2.72-1.19-2.01.39-2.74,1.17c-.72.78-1.09,1.92-1.09,3.41s.36,2.6,1.07,3.39c.71.79,1.61,1.19,2.69,1.19s1.99-.4,2.75-1.19Z" fill="#fff" stroke-width="0"/><path d="M199.85,29.99c.26.15.47.35.61.61.15.26.22.56.22.89s-.07.62-.22.89c-.15.26-.35.47-.61.61-.26.15-.56.22-.9.22s-.63-.07-.9-.22c-.26-.15-.47-.35-.62-.61s-.22-.56-.22-.89.07-.63.22-.89c.15-.26.35-.46.62-.61.26-.15.56-.22.9-.22s.63.07.9.22ZM199.87,32.42c.23-.23.34-.54.34-.92s-.11-.69-.34-.92c-.23-.23-.53-.35-.92-.35s-.69.12-.92.35c-.23.23-.34.54-.34.92s.11.69.34.92c.23.23.53.35.92.35s.69-.12.92-.35ZM199.64,31.47c-.06.09-.13.15-.23.19l.41.65h-.65l-.32-.59h-.05v.59h-.57v-1.69h.88c.19,0,.33.05.45.15.11.1.17.23.17.4,0,.11-.03.21-.08.29ZM198.8,31.33h.22c.09,0,.13-.04.13-.12,0-.07-.04-.11-.13-.11h-.22v.23Z" fill="#fff" stroke-width="0"/><polygon points="7.45 26.39 11.46 18.04 13.93 23.32 12.59 26.39 7.45 26.39" fill="#fff" stroke-width="0"/><polygon points="12.46 15.7 15.21 10.28 23.46 26.39 20.77 31.76 12.46 15.7" fill="#fff" stroke-width="0"/><polygon points="22.15 18.71 26.16 10.02 34.33 26.39 28.99 26.39 26.16 20.71 24.82 23.72 22.15 18.71" fill="#fff" stroke-width="0"/><path d="M20.89,41.78C9.37,41.78,0,32.41,0,20.89S9.37,0,20.89,0s20.89,9.37,20.89,20.89-9.37,20.89-20.89,20.89ZM20.89,4.34c-9.12,0-16.54,7.42-16.54,16.54s7.42,16.54,16.54,16.54,16.54-7.42,16.54-16.54S30.01,4.34,20.89,4.34Z" fill="#fff" stroke-width="0"/></g></svg>